<?xml version="1.0"?><svg width="640" height="480" xmlns="http://www.w3.org/2000/svg">
 <title>yield sign vector eps</title>
 <metadata id="metadata2825">image/svg+xml</metadata>YIELD
 <g>
  <title>Layer 1</title>
  <g id="svg_1">
   <path fill="#ffffff" fill-rule="evenodd" stroke="#000000" stroke-width="0.45565853px" id="path2833" d="m3.00819,37.262272l112.75063,195.152615c0,0 10.299332,15.011749 21.140732,0c110.582321,-192.372665 111.124405,-194.596626 111.124405,-194.596626c0,0 4.878616,-15.56773 -10.841415,-20.01565c-224.417081,0 -224.417081,0 -224.417081,0c0,0 -15.17797,5.5599 -9.75727,19.459661z"/>
   <path fill="#000000" fill-rule="evenodd" stroke="#000000" stroke-width="0.435064" stroke-miterlimit="4" stroke-opacity="0" id="path2835" d="m8.632372,38.824863l107.380339,188.042995c0,0 9.19342,14.424393 19.513885,0.048996c105.268753,-184.217995 106.348312,-187.559563 106.348312,-187.559563c0,0 4.644196,-14.907822 -10.320465,-19.167192c-213.63365,0 -213.63365,0 -213.63365,0c0,0 -14.448657,5.324215 -9.288422,18.634764z"/>
   <path fill="#ffffff" fill-rule="evenodd" stroke="#000000" stroke-width="0.315224" stroke-miterlimit="4" stroke-opacity="0" id="path3615" d="m41.672581,52.85405l77.347439,134.068298c0,0 8.260399,9.603745 15.769867,-0.768295c76.596466,-132.915852 76.596466,-132.915852 76.596466,-132.915852c0,0 3.379272,-10.756203 -7.509445,-13.829403c-155.445808,0 -155.445808,0 -155.445808,0c0,0 -10.513248,3.841503 -6.758518,13.445251z"/>
  </g>
 </g></svg>