<?xml version="1.0" encoding="utf-8" ?>
<svg baseProfile="full" height="136.03642674" version="1.1" width="236.03642674" xmlns="http://www.w3.org/2000/svg" xmlns:ev="http://www.w3.org/2001/xml-events" xmlns:xlink="http://www.w3.org/1999/xlink"><defs /><g id="two_mms" transform="translate(15.0,15.0)"><polygon fill="#00FF00" fill-opacity="0.5" points="0,0 -15.0,0 -15.0,14.75 -14.75,15.0 14.75,15.0 15.0,14.75 15.0,0 0.75,0 0.75,5.0 2.5,5.0 2.75,4.75 2.75,1.0 13.0,1.0 13.0,12.75 12.75,13.0 -12.75,13.0 -13.0,12.75 -13.0,1.0 -2.75,1.0 -2.75,4.75 -2.5,5.0 -0.75,5.0 -0.75,0 -15.0,0 -15.0,-14.75 -14.75,-15.0 14.75,-15.0 15.0,-14.75 15.0,0 0.75,0 0.75,-5.0 2.5,-5.0 2.75,-4.75 2.75,-1.0 13.0,-1.0 13.0,-12.75 12.75,-13.0 -12.75,-13.0 -13.0,-12.75 -13.0,-1.0 -2.75,-1.0 -2.75,-4.75 -2.5,-5.0 -0.75,-5.0 -0.75,0" /><polygon fill="#00FF00" fill-opacity="0.5" points="200.0,100.0 189.393398282,89.3933982822 178.96357326,99.8232233047 178.96357326,100.176776695 199.823223305,121.03642674 200.176776695,121.03642674 210.606601718,110.606601718 200.530330086,100.530330086 196.99479618,104.065863992 198.232233047,105.303300859 198.585786438,105.303300859 201.237436867,102.651650429 208.485281374,109.899494937 200.176776695,118.207999616 199.823223305,118.207999616 181.792000384,100.176776695 181.792000384,99.8232233047 190.100505063,91.5147186258 197.348349571,98.7625631329 194.696699141,101.414213562 194.696699141,101.767766953 195.934136008,103.00520382 199.469669914,99.4696699141 189.393398282,89.3933982822 199.823223305,78.9635732597 200.176776695,78.9635732597 221.03642674,99.8232233047 221.03642674,100.176776695 210.606601718,110.606601718 200.530330086,100.530330086 204.065863992,96.99479618 205.303300859,98.232233047 205.303300859,98.5857864376 202.651650429,101.237436867 209.899494937,108.485281374 218.207999616,100.176776695 218.207999616,99.8232233047 200.176776695,81.7920003844 199.823223305,81.7920003844 191.514718626,90.1005050634 198.762563133,97.3483495706 201.414213562,94.6966991411 201.767766953,94.6966991411 203.00520382,95.9341360082 199.469669914,99.4696699141" /></g></svg>