<?xml version="1.0" encoding="utf-8" ?>
<svg baseProfile="full" height="35.0" version="1.1" width="35.0" xmlns="http://www.w3.org/2000/svg" xmlns:ev="http://www.w3.org/2001/xml-events" xmlns:xlink="http://www.w3.org/1999/xlink"><defs /><g id="four_crosses" transform="translate(5.0,5.0)"><polygon fill="#00FF00" fill-opacity="0.5" points="-2.0,5.0 2.0,5.0 0,0 5.0,2.0 5.0,-2.0 0,0 2.0,-5.0 -2.0,-5.0 0,0 -5.0,-2.0 -5.0,2.0 0,0" /><polygon fill="#00FF00" fill-opacity="0.5" points="23.0,5.0 27.0,5.0 25,0 30.0,2.0 30.0,-2.0 25,0 27.0,-5.0 23.0,-5.0 25,0 20.0,-2.0 20.0,2.0 25,0" /><polygon fill="#00FF00" fill-opacity="0.5" points="-2.0,30.0 2.0,30.0 0,25 5.0,27.0 5.0,23.0 0,25 2.0,20.0 -2.0,20.0 0,25 -5.0,23.0 -5.0,27.0 0,25" /><polygon fill="#00FF00" fill-opacity="0.5" points="23.0,30.0 27.0,30.0 25,25 30.0,27.0 30.0,23.0 25,25 27.0,20.0 23.0,20.0 25,25 20.0,23.0 20.0,27.0 25,25" /></g></svg>