<?xml version="1.0" encoding="UTF-8" standalone="no"?>
<!DOCTYPE svg PUBLIC "-//W3C//DTD SVG 1.1//EN"
 "http://www.w3.org/Graphics/SVG/1.1/DTD/svg11.dtd">
<!-- Generated by graphviz version 2.26.3 (20100126.1600)
 -->
<!-- Title: foo Pages: 1 -->
<svg width="1080pt" height="1080pt"
 viewBox="0.00 0.00 1080.00 1080.00" xmlns="http://www.w3.org/2000/svg" xmlns:xlink="http://www.w3.org/1999/xlink">
<g id="graph1" class="graph" transform="scale(0.819423 0.819423) rotate(0) translate(36 1282)">
<title>foo</title>
<polygon fill="white" stroke="white" points="-36,37 -36,-1282 1283,-1282 1283,37 -36,37"/>
<!-- TNFR -->
<g id="node2" class="node"><title>TNFR</title>
<ellipse fill="white" stroke="black" stroke-width="2" cx="500.155" cy="-1026" rx="72" ry="36"/>
<text text-anchor="middle" x="500.155" y="-1020.2" font-family="Helvetica,sans-Serif" font-size="22.00">TNFR</text>
</g>
<!-- TRAF2 -->
<g id="node5" class="node"><title>TRAF2</title>
<ellipse fill="white" stroke="black" stroke-width="2" cx="294.155" cy="-842" rx="72" ry="36"/>
<text text-anchor="middle" x="294.155" y="-836.2" font-family="Helvetica,sans-Serif" font-size="22.00">TRAF2</text>
</g>
<!-- TNFR&#45;&gt;TRAF2 -->
<g id="edge12" class="edge"><title>TNFR&#45;&gt;TRAF2:center</title>
<path fill="none" stroke="black" stroke-width="3" d="M464.742,-994.369C431.626,-964.79 381.822,-920.304 344.564,-887.025"/>
<polygon fill="black" stroke="black" points="349.029,-881.628 329.45,-873.525 339.703,-892.069 349.029,-881.628"/>
</g>
<!-- PI3K -->
<g id="node7" class="node"><title>PI3K</title>
<ellipse fill="orangered" stroke="orangered" stroke-width="2" cx="691.155" cy="-842" rx="72" ry="36"/>
<text text-anchor="middle" x="691.155" y="-836.2" font-family="Helvetica,sans-Serif" font-size="22.00">PI3K</text>
</g>
<!-- TNFR&#45;&gt;PI3K -->
<g id="edge10" class="edge"><title>TNFR&#45;&gt;PI3K:center</title>
<path fill="none" stroke="black" stroke-width="3" d="M533.425,-993.95C563.869,-964.621 609.259,-920.895 643.541,-887.869"/>
<polygon fill="black" stroke="black" points="648.4,-892.908 657.947,-873.991 638.686,-882.826 648.4,-892.908"/>
</g>
<!-- EGFR -->
<g id="node3" class="node"><title>EGFR</title>
<ellipse fill="white" stroke="black" stroke-width="2" cx="855.155" cy="-1026" rx="72" ry="36"/>
<text text-anchor="middle" x="855.155" y="-1020.2" font-family="Helvetica,sans-Serif" font-size="22.00">EGFR</text>
</g>
<!-- Ras -->
<g id="node6" class="node"><title>Ras</title>
<ellipse fill="white" stroke="black" stroke-width="2" cx="1066.15" cy="-842" rx="72" ry="36"/>
<text text-anchor="middle" x="1066.15" y="-836.2" font-family="Helvetica,sans-Serif" font-size="22.00">Ras</text>
</g>
<!-- EGFR&#45;&gt;Ras -->
<g id="edge14" class="edge"><title>EGFR&#45;&gt;Ras:center</title>
<path fill="none" stroke="black" stroke-width="3" d="M891.427,-994.369C925.423,-964.724 976.588,-920.105 1014.78,-886.803"/>
<polygon fill="black" stroke="black" points="1019.53,-891.946 1030,-873.525 1010.33,-881.394 1019.53,-891.946"/>
</g>
<!-- EGFR&#45;&gt;PI3K -->
<g id="edge16" class="edge"><title>EGFR&#45;&gt;PI3K:center</title>
<path fill="none" stroke="black" stroke-width="3" d="M825.835,-993.104C800.261,-964.412 762.831,-922.417 733.918,-889.978"/>
<polygon fill="black" stroke="black" points="739.03,-885.193 720.497,-874.92 728.579,-894.508 739.03,-885.193"/>
</g>
<!-- p38 -->
<g id="node12" class="node"><title>p38</title>
<ellipse fill="lightblue" stroke="lightblue" stroke-width="2" cx="158.155" cy="-36" rx="72" ry="36"/>
<text text-anchor="middle" x="158.155" y="-30.2" font-family="Helvetica,sans-Serif" font-size="22.00">p38</text>
</g>
<!-- TRAF2&#45;&gt;p38 -->
<g id="edge18" class="edge"><title>TRAF2&#45;&gt;p38:center</title>
<path fill="none" stroke="black" stroke-width="3" d="M235.689,-820.564C198.829,-802.865 158.155,-773.668 158.155,-731 158.155,-731 158.155,-731 158.155,-147 158.155,-129.258 158.155,-109.921 158.155,-92.4307"/>
<polygon fill="black" stroke="black" points="165.155,-92.2437 158.155,-72.2438 151.155,-92.2438 165.155,-92.2437"/>
</g>
<!-- Jnk -->
<g id="node13" class="node"><title>Jnk</title>
<ellipse fill="lightblue" stroke="lightblue" stroke-width="2" cx="513.155" cy="-36" rx="72" ry="36"/>
<text text-anchor="middle" x="513.155" y="-30.2" font-family="Helvetica,sans-Serif" font-size="22.00">Jnk</text>
</g>
<!-- TRAF2&#45;&gt;Jnk -->
<g id="edge20" class="edge"><title>TRAF2&#45;&gt;Jnk:center</title>
<path fill="none" stroke="black" stroke-width="3" d="M294.155,-805.756C294.155,-784.067 294.155,-755.956 294.155,-731 294.155,-731 294.155,-731 294.155,-147 294.155,-86.2043 362.133,-58.6971 422.343,-46.2569"/>
<polygon fill="black" stroke="black" points="423.944,-53.0801 442.354,-42.5894 421.42,-39.3095 423.944,-53.0801"/>
</g>
<!-- Raf -->
<g id="node15" class="node"><title>Raf</title>
<ellipse fill="white" stroke="black" stroke-width="2" cx="1088.15" cy="-550" rx="72" ry="36"/>
<text text-anchor="middle" x="1088.15" y="-544.2" font-family="Helvetica,sans-Serif" font-size="22.00">Raf</text>
</g>
<!-- Ras&#45;&gt;Raf -->
<g id="edge22" class="edge"><title>Ras&#45;&gt;Raf:center</title>
<path fill="none" stroke="black" stroke-width="3" d="M1068.87,-805.902C1072.64,-755.892 1079.49,-665.046 1083.93,-606.138"/>
<polygon fill="black" stroke="black" points="1090.92,-606.485 1085.44,-586.015 1076.96,-605.433 1090.92,-606.485"/>
</g>
<!-- Akt -->
<g id="node17" class="node"><title>Akt</title>
<ellipse fill="lightblue" stroke="lightblue" stroke-width="2" cx="869.155" cy="-658" rx="72" ry="36"/>
<text text-anchor="middle" x="869.155" y="-652.2" font-family="Helvetica,sans-Serif" font-size="22.00">Akt</text>
</g>
<!-- PI3K&#45;&gt;Akt -->
<g id="edge28" class="edge"><title>PI3K&#45;&gt;Akt:center</title>
<path fill="none" stroke="black" stroke-width="3" d="M722.568,-809.528C750.57,-780.582 791.9,-737.859 823.543,-705.149"/>
<polygon fill="black" stroke="black" points="828.882,-709.698 837.757,-690.456 818.82,-699.964 828.882,-709.698"/>
</g>
<!-- Rac -->
<g id="node19" class="node"><title>Rac</title>
<ellipse fill="white" stroke="black" stroke-width="2" cx="513.155" cy="-658" rx="72" ry="36"/>
<text text-anchor="middle" x="513.155" y="-652.2" font-family="Helvetica,sans-Serif" font-size="22.00">Rac</text>
</g>
<!-- PI3K&#45;&gt;Rac -->
<g id="edge30" class="edge"><title>PI3K&#45;&gt;Rac:center</title>
<path fill="none" stroke="black" stroke-width="3" d="M659.742,-809.528C631.74,-780.582 590.409,-737.859 558.766,-705.149"/>
<polygon fill="black" stroke="black" points="563.49,-699.964 544.553,-690.456 553.428,-709.698 563.49,-699.964"/>
</g>
<!-- TGFa -->
<g id="node9" class="node"><title>TGFa</title>
<ellipse fill="#9acd32" stroke="#9acd32" cx="855.155" cy="-1210" rx="72" ry="36"/>
<text text-anchor="middle" x="855.155" y="-1204.2" font-family="Helvetica,sans-Serif" font-size="22.00">TGFa</text>
</g>
<!-- TGFa&#45;&gt;EGFR -->
<g id="edge6" class="edge"><title>TGFa&#45;&gt;EGFR:center</title>
<path fill="none" stroke="black" stroke-width="3" d="M855.155,-1173.65C855.155,-1147.69 855.155,-1112.27 855.155,-1082.62"/>
<polygon fill="black" stroke="black" points="862.155,-1082.28 855.155,-1062.28 848.155,-1082.28 862.155,-1082.28"/>
</g>
<!-- TNFa -->
<g id="node10" class="node"><title>TNFa</title>
<ellipse fill="#9acd32" stroke="#9acd32" cx="500.155" cy="-1210" rx="72" ry="36"/>
<text text-anchor="middle" x="500.155" y="-1204.2" font-family="Helvetica,sans-Serif" font-size="22.00">TNFa</text>
</g>
<!-- TNFa&#45;&gt;TNFR -->
<g id="edge8" class="edge"><title>TNFa&#45;&gt;TNFR:center</title>
<path fill="none" stroke="black" stroke-width="3" d="M500.155,-1173.65C500.155,-1147.69 500.155,-1112.27 500.155,-1082.62"/>
<polygon fill="black" stroke="black" points="507.155,-1082.28 500.155,-1062.28 493.155,-1082.28 507.155,-1082.28"/>
</g>
<!-- Erk -->
<g id="node14" class="node"><title>Erk</title>
<ellipse fill="lightblue" stroke="lightblue" stroke-width="2" cx="1011.15" cy="-36" rx="72" ry="36"/>
<text text-anchor="middle" x="1011.15" y="-30.2" font-family="Helvetica,sans-Serif" font-size="22.00">Erk</text>
</g>
<!-- Mek -->
<g id="node16" class="node"><title>Mek</title>
<ellipse fill="#7ec0ee" stroke="orangered" stroke-width="2" cx="1011.15" cy="-220" rx="72" ry="36"/>
<polyline fill="none" stroke="orangered" stroke-width="2" points="1058.78,-247 963.534,-247 "/>
<polyline fill="none" stroke="orangered" stroke-width="2" points="1058.78,-193 963.534,-193 "/>
<text text-anchor="middle" x="1011.15" y="-214.2" font-family="Helvetica,sans-Serif" font-size="22.00">Mek</text>
</g>
<!-- Raf&#45;&gt;Mek -->
<g id="edge24" class="edge"><title>Raf&#45;&gt;Mek:center</title>
<path fill="none" stroke="black" stroke-width="3" d="M1088.15,-513.7C1088.15,-484.16 1088.15,-441.387 1088.15,-404 1088.15,-404 1088.15,-404 1088.15,-331 1088.15,-307.055 1075.91,-284.555 1061.18,-266.156"/>
<polygon fill="black" stroke="black" points="1066.35,-261.436 1047.85,-251.109 1055.88,-270.72 1066.35,-261.436"/>
</g>
<!-- Mek&#45;&gt;Erk -->
<g id="edge26" class="edge"><title>Mek&#45;&gt;Erk:center</title>
<path fill="none" stroke="black" stroke-width="3" d="M1011.15,-183.648C1011.15,-157.69 1011.15,-122.266 1011.15,-92.6223"/>
<polygon fill="black" stroke="black" points="1018.16,-92.2769 1011.15,-72.277 1004.16,-92.277 1018.16,-92.2769"/>
</g>
<!-- PAK -->
<g id="node18" class="node"><title>PAK</title>
<ellipse fill="white" stroke="black" stroke-width="2" cx="869.155" cy="-404" rx="72" ry="36"/>
<text text-anchor="middle" x="869.155" y="-398.2" font-family="Helvetica,sans-Serif" font-size="22.00">PAK</text>
</g>
<!-- Akt&#45;&gt;PAK -->
<g id="edge32" class="edge"><title>Akt&#45;&gt;PAK:center</title>
<path fill="none" stroke="red" stroke-width="3" d="M869.155,-621.878C869.155,-576.868 869.155,-499.879 869.155,-450.504"/>
<polygon fill="red" stroke="red" points="859.155,-442.409 879.155,-442.409 879.155,-446.409 859.155,-446.409 859.155,-442.409"/>
<polyline fill="none" stroke="red" points="869.155,-440.409 869.155,-450.409 "/>
</g>
<!-- PAK&#45;&gt;Mek -->
<g id="edge34" class="edge"><title>PAK&#45;&gt;Mek:center</title>
<path fill="none" stroke="black" stroke-width="3" d="M895.2,-370.252C916.85,-342.198 947.974,-301.868 972.527,-270.053"/>
<polygon fill="black" stroke="black" points="978.357,-273.956 985.035,-253.846 967.274,-265.402 978.357,-273.956"/>
</g>
<!-- Rac&#45;&gt;Jnk -->
<g id="edge36" class="edge"><title>Rac&#45;&gt;Jnk:center</title>
<path fill="none" stroke="black" stroke-width="3" d="M513.155,-621.941C513.155,-585.411 513.155,-527.278 513.155,-477 513.155,-477 513.155,-477 513.155,-147 513.155,-129.258 513.155,-109.921 513.155,-92.4307"/>
<polygon fill="black" stroke="black" points="520.155,-92.2437 513.155,-72.2438 506.155,-92.2438 520.155,-92.2437"/>
</g>
<!-- Rac&#45;&gt;PAK -->
<g id="edge38" class="edge"><title>Rac&#45;&gt;PAK:center</title>
<path fill="none" stroke="black" stroke-width="3" d="M554.689,-628.366C618.111,-583.116 739.296,-496.652 811.297,-445.281"/>
<polygon fill="black" stroke="black" points="815.395,-450.956 827.61,-433.641 807.264,-439.559 815.395,-450.956"/>
</g>
</g>
</svg>
