<?xml version="1.0" encoding="UTF-8" standalone="no"?>
<!DOCTYPE svg PUBLIC "-//W3C//DTD SVG 1.1//EN"
 "http://www.w3.org/Graphics/SVG/1.1/DTD/svg11.dtd">
<!-- Generated by graphviz version 2.26.3 (20100126.1600)
 -->
<!-- Title: foo Pages: 1 -->
<svg width="1080pt" height="1080pt"
 viewBox="0.00 0.00 1080.00 1080.00" xmlns="http://www.w3.org/2000/svg" xmlns:xlink="http://www.w3.org/1999/xlink">
<g id="graph1" class="graph" transform="scale(0.487805 0.487805) rotate(0) translate(36 2178)">
<title>foo</title>
<polygon fill="white" stroke="white" points="-36,37 -36,-2178 2179,-2178 2179,37 -36,37"/>
<!-- tnfr -->
<g id="node2" class="node"><title>tnfr</title>
<ellipse fill="white" stroke="black" stroke-width="2" cx="954.021" cy="-1922" rx="72" ry="36"/>
<text text-anchor="middle" x="954.021" y="-1916.2" font-family="Helvetica,sans-Serif" font-size="22.00">tnfr</text>
</g>
<!-- traf2 -->
<g id="node5" class="node"><title>traf2</title>
<ellipse fill="white" stroke="black" stroke-width="2" cx="582.021" cy="-1738" rx="72" ry="36"/>
<text text-anchor="middle" x="582.021" y="-1732.2" font-family="Helvetica,sans-Serif" font-size="22.00">traf2</text>
</g>
<!-- tnfr&#45;&gt;traf2 -->
<g id="edge13" class="edge"><title>tnfr&#45;&gt;traf2:center</title>
<path fill="none" stroke="black" stroke-width="3" d="M902.687,-1896.61C837.412,-1864.32 724.447,-1808.45 651.506,-1772.37"/>
<polygon fill="black" stroke="black" points="654.456,-1766.02 633.426,-1763.43 648.249,-1778.57 654.456,-1766.02"/>
</g>
<!-- pi3k -->
<g id="node6" class="node"><title>pi3k</title>
<ellipse fill="orangered" stroke="orangered" stroke-width="2" cx="1102.02" cy="-1738" rx="72" ry="36"/>
<text text-anchor="middle" x="1102.02" y="-1732.2" font-family="Helvetica,sans-Serif" font-size="22.00">pi3k</text>
</g>
<!-- tnfr&#45;&gt;pi3k -->
<g id="edge15" class="edge"><title>tnfr&#45;&gt;pi3k:center</title>
<path fill="none" stroke="black" stroke-width="3" d="M981.166,-1888.25C1003.91,-1859.98 1036.67,-1819.24 1062.36,-1787.31"/>
<polygon fill="black" stroke="black" points="1067.97,-1791.51 1075.05,-1771.53 1057.06,-1782.73 1067.97,-1791.51"/>
</g>
<!-- egfr -->
<g id="node3" class="node"><title>egfr</title>
<ellipse fill="white" stroke="black" stroke-width="2" cx="1408.02" cy="-1922" rx="72" ry="36"/>
<text text-anchor="middle" x="1408.02" y="-1916.2" font-family="Helvetica,sans-Serif" font-size="22.00">egfr</text>
</g>
<!-- egfr&#45;&gt;pi3k -->
<g id="edge43" class="edge"><title>egfr&#45;&gt;pi3k:center</title>
<path fill="none" stroke="black" stroke-width="3" d="M1361.88,-1894.25C1309.6,-1862.82 1224.08,-1811.4 1165.53,-1776.19"/>
<polygon fill="black" stroke="black" points="1169.04,-1770.13 1148.29,-1765.82 1161.82,-1782.13 1169.04,-1770.13"/>
</g>
<!-- sos -->
<g id="node38" class="node"><title>sos</title>
<ellipse fill="white" stroke="black" stroke-width="2" cx="1472.02" cy="-1630" rx="72" ry="36"/>
<text text-anchor="middle" x="1472.02" y="-1624.2" font-family="Helvetica,sans-Serif" font-size="22.00">sos</text>
</g>
<!-- egfr&#45;&gt;sos -->
<g id="edge45" class="edge"><title>egfr&#45;&gt;sos:center</title>
<path fill="none" stroke="black" stroke-width="3" d="M1415.87,-1886.2C1426.83,-1836.17 1446.84,-1744.89 1459.77,-1685.87"/>
<polygon fill="black" stroke="black" points="1466.66,-1687.13 1464.11,-1666.1 1452.99,-1684.14 1466.66,-1687.13"/>
</g>
<!-- map3k7 -->
<g id="node8" class="node"><title>map3k7</title>
<ellipse fill="white" stroke="black" stroke-width="2" cx="462.021" cy="-1484" rx="72" ry="36"/>
<text text-anchor="middle" x="462.021" y="-1478.2" font-family="Helvetica,sans-Serif" font-size="22.00">map3k7</text>
</g>
<!-- traf2&#45;&gt;map3k7 -->
<g id="edge17" class="edge"><title>traf2&#45;&gt;map3k7:center</title>
<path fill="none" stroke="black" stroke-width="3" d="M565.461,-1702.95C545.21,-1660.08 510.728,-1587.1 487.188,-1537.27"/>
<polygon fill="black" stroke="black" points="493.476,-1534.19 478.603,-1519.1 480.817,-1540.17 493.476,-1534.19"/>
</g>
<!-- akt -->
<g id="node9" class="node"><title>akt</title>
<ellipse fill="white" stroke="black" stroke-width="2" cx="809.021" cy="-1484" rx="72" ry="36"/>
<text text-anchor="middle" x="809.021" y="-1478.2" font-family="Helvetica,sans-Serif" font-size="22.00">akt</text>
</g>
<!-- pi3k&#45;&gt;akt -->
<g id="edge35" class="edge"><title>pi3k&#45;&gt;akt:center</title>
<path fill="none" stroke="black" stroke-width="3" d="M1065.8,-1706.6C1014.19,-1661.86 919.23,-1579.54 860.376,-1528.52"/>
<polygon fill="black" stroke="black" points="864.857,-1523.14 845.16,-1515.33 855.687,-1533.72 864.857,-1523.14"/>
</g>
<!-- rac -->
<g id="node10" class="node"><title>rac</title>
<ellipse fill="white" stroke="black" stroke-width="2" cx="1156.02" cy="-1484" rx="72" ry="36"/>
<text text-anchor="middle" x="1156.02" y="-1478.2" font-family="Helvetica,sans-Serif" font-size="22.00">rac</text>
</g>
<!-- pi3k&#45;&gt;rac -->
<g id="edge37" class="edge"><title>pi3k&#45;&gt;rac:center</title>
<path fill="none" stroke="black" stroke-width="3" d="M1109.64,-1702.15C1118.62,-1659.91 1133.65,-1589.24 1144.15,-1539.82"/>
<polygon fill="black" stroke="black" points="1151.04,-1541.1 1148.35,-1520.08 1137.34,-1538.19 1151.04,-1541.1"/>
</g>
<!-- nik -->
<g id="node12" class="node"><title>nik</title>
<ellipse fill="white" stroke="black" stroke-width="2" cx="344.021" cy="-1230" rx="72" ry="36"/>
<text text-anchor="middle" x="344.021" y="-1224.2" font-family="Helvetica,sans-Serif" font-size="22.00">nik</text>
</g>
<!-- map3k7&#45;&gt;nik -->
<g id="edge19" class="edge"><title>map3k7&#45;&gt;nik:center</title>
<path fill="none" stroke="black" stroke-width="3" d="M445.614,-1448.68C425.723,-1405.87 392.004,-1333.29 368.908,-1283.57"/>
<polygon fill="black" stroke="black" points="375.254,-1280.62 360.479,-1265.43 362.557,-1286.51 375.254,-1280.62"/>
</g>
<!-- mkk4 -->
<g id="node27" class="node"><title>mkk4</title>
<ellipse fill="white" stroke="black" stroke-width="2" cx="809.021" cy="-868" rx="72" ry="36"/>
<text text-anchor="middle" x="809.021" y="-862.2" font-family="Helvetica,sans-Serif" font-size="22.00">mkk4</text>
</g>
<!-- map3k7&#45;&gt;mkk4 -->
<g id="edge21" class="edge"><title>map3k7&#45;&gt;mkk4:center</title>
<path fill="none" stroke="black" stroke-width="3" d="M503.87,-1454.53C544.159,-1422.37 599.021,-1366.84 599.021,-1303 599.021,-1303 599.021,-1303 599.021,-1122 599.021,-1028.64 684.325,-951.112 746.196,-907.154"/>
<polygon fill="black" stroke="black" points="750.41,-912.752 762.936,-895.661 742.486,-901.211 750.41,-912.752"/>
</g>
<!-- gsk3 -->
<g id="node24" class="node"><title>gsk3</title>
<ellipse fill="lightblue" stroke="lightblue" stroke-width="2" cx="494.021" cy="-36" rx="72" ry="36"/>
<text text-anchor="middle" x="494.021" y="-30.2" font-family="Helvetica,sans-Serif" font-size="22.00">gsk3</text>
</g>
<!-- akt&#45;&gt;gsk3 -->
<g id="edge39" class="edge"><title>akt&#45;&gt;gsk3:center</title>
<path fill="none" stroke="red" stroke-width="3" d="M769.264,-1453.69C731.361,-1421.04 680.021,-1365.32 680.021,-1303 680.021,-1303 680.021,-1303 680.021,-1122 680.021,-990.669 529.021,-999.331 529.021,-868 529.021,-868 529.021,-868 529.021,-252 529.021,-192.739 516.025,-125.497 505.872,-82.0042"/>
<polygon fill="red" stroke="red" points="494.228,-76.2814 513.684,-71.6462 514.611,-75.5373 495.155,-80.1725 494.228,-76.2814"/>
<polyline fill="none" stroke="red" points="503.492,-72.0182 505.81,-81.746 "/>
</g>
<!-- map3k1 -->
<g id="node28" class="node"><title>map3k1</title>
<ellipse fill="white" stroke="black" stroke-width="2" cx="1156.02" cy="-1122" rx="72" ry="36"/>
<text text-anchor="middle" x="1156.02" y="-1116.2" font-family="Helvetica,sans-Serif" font-size="22.00">map3k1</text>
</g>
<!-- rac&#45;&gt;map3k1 -->
<g id="edge47" class="edge"><title>rac&#45;&gt;map3k1:center</title>
<path fill="none" stroke="black" stroke-width="3" d="M1156.02,-1447.97C1156.02,-1384.76 1156.02,-1253.48 1156.02,-1178.24"/>
<polygon fill="black" stroke="black" points="1163.02,-1178.16 1156.02,-1158.16 1149.02,-1178.16 1163.02,-1178.16"/>
</g>
<!-- ikk -->
<g id="node14" class="node"><title>ikk</title>
<ellipse fill="white" stroke="black" stroke-width="2" cx="315.021" cy="-976" rx="72" ry="36"/>
<text text-anchor="middle" x="315.021" y="-970.2" font-family="Helvetica,sans-Serif" font-size="22.00">ikk</text>
</g>
<!-- nik&#45;&gt;ikk -->
<g id="edge23" class="edge"><title>nik&#45;&gt;ikk:center</title>
<path fill="none" stroke="black" stroke-width="3" d="M339.897,-1193.88C335.078,-1151.67 327.047,-1081.33 321.417,-1032.02"/>
<polygon fill="black" stroke="black" points="328.355,-1031.07 319.131,-1012 314.445,-1032.66 328.355,-1031.07"/>
</g>
<!-- ikb -->
<g id="node16" class="node"><title>ikb</title>
<ellipse fill="white" stroke="black" stroke-width="2" cx="315.021" cy="-722" rx="72" ry="36"/>
<text text-anchor="middle" x="315.021" y="-716.2" font-family="Helvetica,sans-Serif" font-size="22.00">ikb</text>
</g>
<!-- ikk&#45;&gt;ikb -->
<g id="edge25" class="edge"><title>ikk&#45;&gt;ikb:center</title>
<path fill="none" stroke="red" stroke-width="3" d="M315.021,-939.878C315.021,-894.868 315.021,-817.879 315.021,-768.504"/>
<polygon fill="red" stroke="red" points="305.021,-760.409 325.021,-760.409 325.021,-764.409 305.021,-764.409 305.021,-760.409"/>
<polyline fill="none" stroke="red" points="315.021,-758.409 315.021,-768.409 "/>
</g>
<!-- nfkb -->
<g id="node18" class="node"><title>nfkb</title>
<ellipse fill="lightblue" stroke="lightblue" stroke-width="2" cx="315.021" cy="-468" rx="72" ry="36"/>
<text text-anchor="middle" x="315.021" y="-462.2" font-family="Helvetica,sans-Serif" font-size="22.00">nfkb</text>
</g>
<!-- ikb&#45;&gt;nfkb -->
<g id="edge27" class="edge"><title>ikb&#45;&gt;nfkb:center</title>
<path fill="none" stroke="red" stroke-width="3" d="M315.021,-685.878C315.021,-640.868 315.021,-563.879 315.021,-514.504"/>
<polygon fill="red" stroke="red" points="305.021,-506.409 325.021,-506.409 325.021,-510.409 305.021,-510.409 305.021,-506.409"/>
<polyline fill="none" stroke="red" points="315.021,-504.409 315.021,-514.409 "/>
</g>
<!-- ex -->
<g id="node26" class="node"><title>ex</title>
<ellipse fill="white" stroke="black" stroke-width="2" cx="154.021" cy="-144" rx="72" ry="36"/>
<text text-anchor="middle" x="154.021" y="-138.2" font-family="Helvetica,sans-Serif" font-size="22.00">ex</text>
</g>
<!-- nfkb&#45;&gt;ex -->
<g id="edge29" class="edge"><title>nfkb&#45;&gt;ex:center</title>
<path fill="none" stroke="black" stroke-width="3" d="M297.638,-433.018C269.456,-376.304 213.614,-263.927 180.477,-197.241"/>
<polygon fill="black" stroke="black" points="186.744,-194.122 171.575,-179.327 174.207,-200.352 186.744,-194.122"/>
</g>
<!-- tnfa -->
<g id="node20" class="node"><title>tnfa</title>
<ellipse fill="#9acd32" stroke="#9acd32" cx="954.021" cy="-2106" rx="72" ry="36"/>
<text text-anchor="middle" x="954.021" y="-2100.2" font-family="Helvetica,sans-Serif" font-size="22.00">tnfa</text>
</g>
<!-- tnfa&#45;&gt;tnfr -->
<g id="edge11" class="edge"><title>tnfa&#45;&gt;tnfr:center</title>
<path fill="none" stroke="black" stroke-width="3" d="M954.021,-2069.65C954.021,-2043.69 954.021,-2008.27 954.021,-1978.62"/>
<polygon fill="black" stroke="black" points="961.021,-1978.28 954.021,-1958.28 947.021,-1978.28 961.021,-1978.28"/>
</g>
<!-- egf -->
<g id="node21" class="node"><title>egf</title>
<ellipse fill="#9acd32" stroke="#9acd32" cx="1408.02" cy="-2106" rx="72" ry="36"/>
<text text-anchor="middle" x="1408.02" y="-2100.2" font-family="Helvetica,sans-Serif" font-size="22.00">egf</text>
</g>
<!-- egf&#45;&gt;egfr -->
<g id="edge41" class="edge"><title>egf&#45;&gt;egfr:center</title>
<path fill="none" stroke="black" stroke-width="3" d="M1408.02,-2069.65C1408.02,-2043.69 1408.02,-2008.27 1408.02,-1978.62"/>
<polygon fill="black" stroke="black" points="1415.02,-1978.28 1408.02,-1958.28 1401.02,-1978.28 1415.02,-1978.28"/>
</g>
<!-- p38 -->
<g id="node23" class="node"><title>p38</title>
<ellipse fill="lightblue" stroke="lightblue" stroke-width="2" cx="841.021" cy="-36" rx="72" ry="36"/>
<text text-anchor="middle" x="841.021" y="-30.2" font-family="Helvetica,sans-Serif" font-size="22.00">p38</text>
</g>
<!-- ap1 -->
<g id="node25" class="node"><title>ap1</title>
<ellipse fill="lightblue" stroke="lightblue" stroke-width="2" cx="1188.02" cy="-36" rx="72" ry="36"/>
<text text-anchor="middle" x="1188.02" y="-30.2" font-family="Helvetica,sans-Serif" font-size="22.00">ap1</text>
</g>
<!-- ex&#45;&gt;ikb -->
<g id="edge31" class="edge"><title>ex&#45;&gt;ikb:center</title>
<path fill="none" stroke="black" stroke-width="3" d="M139.678,-179.65C123.982,-221.946 101.021,-294.938 101.021,-360 101.021,-541 101.021,-541 101.021,-541 101.021,-614.864 176.263,-664.771 237.516,-693.161"/>
<polygon fill="black" stroke="black" points="234.853,-699.637 255.978,-701.284 240.491,-686.822 234.853,-699.637"/>
</g>
<!-- mkk4&#45;&gt;p38 -->
<g id="edge33" class="edge"><title>mkk4&#45;&gt;p38:center</title>
<path fill="none" stroke="black" stroke-width="3" d="M821.301,-832.476C830.326,-803.201 841.021,-760.404 841.021,-722 841.021,-722 841.021,-722 841.021,-252 841.021,-197.822 841.021,-135.999 841.021,-92.4167"/>
<polygon fill="black" stroke="black" points="848.021,-92.307 841.021,-72.3071 834.021,-92.3071 848.021,-92.307"/>
</g>
<!-- map3k1&#45;&gt;mkk4 -->
<g id="edge49" class="edge"><title>map3k1&#45;&gt;mkk4:center</title>
<path fill="none" stroke="black" stroke-width="3" d="M1115.2,-1092.12C1053.46,-1046.93 936.139,-961.049 866.016,-909.72"/>
<polygon fill="black" stroke="black" points="869.964,-903.935 849.691,-897.77 861.695,-915.232 869.964,-903.935"/>
</g>
<!-- mkk7 -->
<g id="node29" class="node"><title>mkk7</title>
<ellipse fill="white" stroke="black" stroke-width="2" cx="1156.02" cy="-868" rx="72" ry="36"/>
<text text-anchor="middle" x="1156.02" y="-862.2" font-family="Helvetica,sans-Serif" font-size="22.00">mkk7</text>
</g>
<!-- map3k1&#45;&gt;mkk7 -->
<g id="edge51" class="edge"><title>map3k1&#45;&gt;mkk7:center</title>
<path fill="none" stroke="black" stroke-width="3" d="M1156.02,-1085.88C1156.02,-1043.79 1156.02,-973.731 1156.02,-924.443"/>
<polygon fill="black" stroke="black" points="1163.02,-924.409 1156.02,-904.409 1149.02,-924.409 1163.02,-924.409"/>
</g>
<!-- jnk -->
<g id="node30" class="node"><title>jnk</title>
<ellipse fill="white" stroke="black" stroke-width="2" cx="1156.02" cy="-614" rx="72" ry="36"/>
<text text-anchor="middle" x="1156.02" y="-608.2" font-family="Helvetica,sans-Serif" font-size="22.00">jnk</text>
</g>
<!-- mkk7&#45;&gt;jnk -->
<g id="edge53" class="edge"><title>mkk7&#45;&gt;jnk:center</title>
<path fill="none" stroke="black" stroke-width="3" d="M1156.02,-831.878C1156.02,-789.787 1156.02,-719.731 1156.02,-670.443"/>
<polygon fill="black" stroke="black" points="1163.02,-670.409 1156.02,-650.409 1149.02,-670.409 1163.02,-670.409"/>
</g>
<!-- cjun -->
<g id="node31" class="node"><title>cjun</title>
<ellipse fill="white" stroke="black" stroke-width="2" cx="1179.02" cy="-360" rx="72" ry="36"/>
<text text-anchor="middle" x="1179.02" y="-354.2" font-family="Helvetica,sans-Serif" font-size="22.00">cjun</text>
</g>
<!-- jnk&#45;&gt;cjun -->
<g id="edge55" class="edge"><title>jnk&#45;&gt;cjun:center</title>
<path fill="none" stroke="black" stroke-width="3" d="M1159.29,-577.878C1163.11,-535.668 1169.48,-465.332 1173.95,-416.023"/>
<polygon fill="black" stroke="black" points="1180.93,-416.547 1175.76,-395.998 1166.99,-415.285 1180.93,-416.547"/>
</g>
<!-- cjun&#45;&gt;ap1 -->
<g id="edge57" class="edge"><title>cjun&#45;&gt;ap1:center</title>
<path fill="none" stroke="black" stroke-width="3" d="M1180.03,-323.776C1181.59,-267.602 1184.6,-159.034 1186.45,-92.4937"/>
<polygon fill="black" stroke="black" points="1193.45,-92.6729 1187.01,-72.4862 1179.45,-92.2841 1193.45,-92.6729"/>
</g>
<!-- ras -->
<g id="node32" class="node"><title>ras</title>
<ellipse fill="white" stroke="black" stroke-width="2" cx="1472.02" cy="-1376" rx="72" ry="36"/>
<text text-anchor="middle" x="1472.02" y="-1370.2" font-family="Helvetica,sans-Serif" font-size="22.00">ras</text>
</g>
<!-- ras&#45;&gt;map3k1 -->
<g id="edge59" class="edge"><title>ras&#45;&gt;map3k1:center</title>
<path fill="none" stroke="black" stroke-width="3" d="M1433.9,-1345.36C1378.03,-1300.45 1273.64,-1216.54 1209.93,-1165.33"/>
<polygon fill="black" stroke="black" points="1214.25,-1159.82 1194.27,-1152.75 1205.48,-1170.73 1214.25,-1159.82"/>
</g>
<!-- raf1 -->
<g id="node33" class="node"><title>raf1</title>
<ellipse fill="#7ec0ee" stroke="orangered" stroke-width="2" cx="1502.02" cy="-1122" rx="72" ry="36"/>
<polyline fill="none" stroke="orangered" stroke-width="2" points="1549.64,-1149 1454.4,-1149 "/>
<polyline fill="none" stroke="orangered" stroke-width="2" points="1549.64,-1095 1454.4,-1095 "/>
<text text-anchor="middle" x="1502.02" y="-1116.2" font-family="Helvetica,sans-Serif" font-size="22.00">raf1</text>
</g>
<!-- ras&#45;&gt;raf1 -->
<g id="edge61" class="edge"><title>ras&#45;&gt;raf1:center</title>
<path fill="none" stroke="black" stroke-width="3" d="M1476.29,-1339.88C1481.27,-1297.67 1489.58,-1227.33 1495.4,-1178.02"/>
<polygon fill="black" stroke="black" points="1502.37,-1178.68 1497.77,-1158 1488.47,-1177.04 1502.37,-1178.68"/>
</g>
<!-- mek -->
<g id="node34" class="node"><title>mek</title>
<ellipse fill="white" stroke="black" stroke-width="2" cx="1502.02" cy="-868" rx="72" ry="36"/>
<text text-anchor="middle" x="1502.02" y="-862.2" font-family="Helvetica,sans-Serif" font-size="22.00">mek</text>
</g>
<!-- raf1&#45;&gt;mek -->
<g id="edge63" class="edge"><title>raf1&#45;&gt;mek:center</title>
<path fill="none" stroke="black" stroke-width="3" d="M1502.02,-1085.88C1502.02,-1043.79 1502.02,-973.731 1502.02,-924.443"/>
<polygon fill="black" stroke="black" points="1509.02,-924.409 1502.02,-904.409 1495.02,-924.409 1509.02,-924.409"/>
</g>
<!-- p90rsk -->
<g id="node35" class="node"><title>p90rsk</title>
<ellipse fill="white" stroke="black" stroke-width="2" cx="1502.02" cy="-614" rx="72" ry="36"/>
<text text-anchor="middle" x="1502.02" y="-608.2" font-family="Helvetica,sans-Serif" font-size="22.00">p90rsk</text>
</g>
<!-- mek&#45;&gt;p90rsk -->
<g id="edge65" class="edge"><title>mek&#45;&gt;p90rsk:center</title>
<path fill="none" stroke="black" stroke-width="3" d="M1502.02,-831.878C1502.02,-789.787 1502.02,-719.731 1502.02,-670.443"/>
<polygon fill="black" stroke="black" points="1509.02,-670.409 1502.02,-650.409 1495.02,-670.409 1509.02,-670.409"/>
</g>
<!-- erk -->
<g id="node36" class="node"><title>erk</title>
<ellipse fill="lightblue" stroke="lightblue" stroke-width="2" cx="1849.02" cy="-614" rx="72" ry="36"/>
<text text-anchor="middle" x="1849.02" y="-608.2" font-family="Helvetica,sans-Serif" font-size="22.00">erk</text>
</g>
<!-- mek&#45;&gt;erk -->
<g id="edge67" class="edge"><title>mek&#45;&gt;erk:center</title>
<path fill="none" stroke="black" stroke-width="3" d="M1542.85,-838.116C1604.58,-792.927 1721.9,-707.049 1792.03,-655.72"/>
<polygon fill="black" stroke="black" points="1796.35,-661.232 1808.35,-643.77 1788.08,-649.935 1796.35,-661.232"/>
</g>
<!-- creb -->
<g id="node39" class="node"><title>creb</title>
<ellipse fill="white" stroke="black" stroke-width="2" cx="1502.02" cy="-252" rx="72" ry="36"/>
<text text-anchor="middle" x="1502.02" y="-246.2" font-family="Helvetica,sans-Serif" font-size="22.00">creb</text>
</g>
<!-- p90rsk&#45;&gt;creb -->
<g id="edge69" class="edge"><title>p90rsk&#45;&gt;creb:center</title>
<path fill="none" stroke="black" stroke-width="3" d="M1502.02,-577.967C1502.02,-514.759 1502.02,-383.482 1502.02,-308.236"/>
<polygon fill="black" stroke="black" points="1509.02,-308.156 1502.02,-288.156 1495.02,-308.156 1509.02,-308.156"/>
</g>
<!-- ph -->
<g id="node37" class="node"><title>ph</title>
<ellipse fill="white" stroke="black" stroke-width="2" cx="1988.02" cy="-360" rx="72" ry="36"/>
<text text-anchor="middle" x="1988.02" y="-354.2" font-family="Helvetica,sans-Serif" font-size="22.00">ph</text>
</g>
<!-- erk&#45;&gt;ph -->
<g id="edge71" class="edge"><title>erk&#45;&gt;ph:center</title>
<path fill="none" stroke="black" stroke-width="3" d="M1868.06,-579.215C1891.59,-536.205 1931.88,-462.58 1959.21,-412.639"/>
<polygon fill="black" stroke="black" points="1965.53,-415.677 1968.99,-394.772 1953.25,-408.956 1965.53,-415.677"/>
</g>
<!-- ph&#45;&gt;sos -->
<g id="edge73" class="edge"><title>ph&#45;&gt;sos:center</title>
<path fill="none" stroke="red" stroke-width="3" d="M2011.75,-394.31C2033.72,-429.479 2063.02,-486.577 2063.02,-541 2063.02,-1484 2063.02,-1484 2063.02,-1484 2063.02,-1587.55 1716.77,-1618.12 1554.33,-1626.76"/>
<polygon fill="red" stroke="red" points="1546.41,-1637.18 1545.38,-1617.21 1549.37,-1617 1550.41,-1636.98 1546.41,-1637.18"/>
<polyline fill="none" stroke="red" points="1543.9,-1627.3 1553.89,-1626.78 "/>
</g>
<!-- sos&#45;&gt;ras -->
<g id="edge75" class="edge"><title>sos&#45;&gt;ras:center</title>
<path fill="none" stroke="black" stroke-width="3" d="M1472.02,-1593.88C1472.02,-1551.79 1472.02,-1481.73 1472.02,-1432.44"/>
<polygon fill="black" stroke="black" points="1479.02,-1432.41 1472.02,-1412.41 1465.02,-1432.41 1479.02,-1432.41"/>
</g>
</g>
</svg>
