<?xml version="1.0" encoding="UTF-8" standalone="no"?>
<!DOCTYPE svg PUBLIC "-//W3C//DTD SVG 1.1//EN"
 "http://www.w3.org/Graphics/SVG/1.1/DTD/svg11.dtd">
<!-- Generated by graphviz version 2.26.3 (20100126.1600)
 -->
<!-- Title: foo Pages: 1 -->
<svg width="1080pt" height="1080pt"
 viewBox="0.00 0.00 1080.00 1080.00" xmlns="http://www.w3.org/2000/svg" xmlns:xlink="http://www.w3.org/1999/xlink">
<g id="graph1" class="graph" transform="scale(0.865385 0.865385) rotate(0) translate(36 1212)">
<title>foo</title>
<polygon fill="white" stroke="white" points="-36,37 -36,-1212 1213,-1212 1213,37 -36,37"/>
<!-- TRAF6 -->
<g id="node2" class="node"><title>TRAF6</title>
<ellipse fill="white" stroke="black" stroke-width="2" cx="377.027" cy="-956" rx="72" ry="36"/>
<text text-anchor="middle" x="377.027" y="-950.2" font-family="Helvetica,sans-Serif" font-size="22.00">TRAF6</text>
</g>
<!-- p38 -->
<g id="node6" class="node"><title>p38</title>
<ellipse fill="white" stroke="black" stroke-width="2" cx="342.027" cy="-772" rx="72" ry="36"/>
<text text-anchor="middle" x="342.027" y="-766.2" font-family="Helvetica,sans-Serif" font-size="22.00">p38</text>
</g>
<!-- TRAF6&#45;&gt;p38 -->
<g id="edge17" class="edge"><title>TRAF6&#45;&gt;p38:center</title>
<path fill="none" stroke="black" stroke-width="3" d="M370.196,-920.086C365.225,-893.955 358.398,-858.062 352.709,-828.158"/>
<polygon fill="black" stroke="black" points="359.515,-826.477 348.901,-808.137 345.762,-829.093 359.515,-826.477"/>
</g>
<!-- and1 -->
<g id="node9" class="node"><title>and1</title>
<ellipse fill="black" stroke="black" stroke-width="2" cx="526.027" cy="-772" rx="3" ry="3.5"/>
</g>
<!-- TRAF6&#45;&gt;and1 -->
<g id="edge19" class="edge"><title>TRAF6&#45;&gt;and1:center</title>
<path fill="none" stroke="black" stroke-width="3" d="M404.356,-922.252C435.756,-883.476 486.148,-821.246 511.073,-790.467"/>
<polygon fill="black" stroke="black" points="516.566,-794.806 523.713,-774.858 505.686,-785.996 516.566,-794.806"/>
</g>
<!-- NFkB -->
<g id="node17" class="node"><title>NFkB</title>
<ellipse fill="lightblue" stroke="lightblue" stroke-width="2" cx="143.027" cy="-36" rx="72" ry="36"/>
<text text-anchor="middle" x="143.027" y="-30.2" font-family="Helvetica,sans-Serif" font-size="22.00">NFkB</text>
</g>
<!-- TRAF6&#45;&gt;NFkB -->
<g id="edge15" class="edge"><title>TRAF6&#45;&gt;NFkB:center</title>
<path fill="none" stroke="black" stroke-width="3" d="M313.395,-939.148C244.103,-918.878 143.027,-882.826 143.027,-845 143.027,-845 143.027,-845 143.027,-147 143.027,-129.258 143.027,-109.921 143.027,-92.4307"/>
<polygon fill="black" stroke="black" points="150.027,-92.2437 143.027,-72.2438 136.027,-92.2438 150.027,-92.2437"/>
</g>
<!-- PI3K -->
<g id="node3" class="node"><title>PI3K</title>
<ellipse fill="orangered" stroke="orangered" stroke-width="2" cx="711.027" cy="-956" rx="72" ry="36"/>
<text text-anchor="middle" x="711.027" y="-950.2" font-family="Helvetica,sans-Serif" font-size="22.00">PI3K</text>
</g>
<!-- Akt -->
<g id="node7" class="node"><title>Akt</title>
<ellipse fill="lightblue" stroke="lightblue" stroke-width="2" cx="711.027" cy="-772" rx="72" ry="36"/>
<text text-anchor="middle" x="711.027" y="-766.2" font-family="Helvetica,sans-Serif" font-size="22.00">Akt</text>
</g>
<!-- PI3K&#45;&gt;Akt -->
<g id="edge29" class="edge"><title>PI3K&#45;&gt;Akt:center</title>
<path fill="none" stroke="black" stroke-width="3" d="M711.027,-919.648C711.027,-893.69 711.027,-858.266 711.027,-828.622"/>
<polygon fill="black" stroke="black" points="718.027,-828.277 711.027,-808.277 704.027,-828.277 718.027,-828.277"/>
</g>
<!-- Ras -->
<g id="node4" class="node"><title>Ras</title>
<ellipse fill="white" stroke="black" stroke-width="2" cx="1033.03" cy="-956" rx="72" ry="36"/>
<text text-anchor="middle" x="1033.03" y="-950.2" font-family="Helvetica,sans-Serif" font-size="22.00">Ras</text>
</g>
<!-- Raf -->
<g id="node8" class="node"><title>Raf</title>
<ellipse fill="orangered" stroke="orangered" stroke-width="2" cx="1033.03" cy="-772" rx="72" ry="36"/>
<text text-anchor="middle" x="1033.03" y="-766.2" font-family="Helvetica,sans-Serif" font-size="22.00">Raf</text>
</g>
<!-- Ras&#45;&gt;Raf -->
<g id="edge31" class="edge"><title>Ras&#45;&gt;Raf:center</title>
<path fill="none" stroke="black" stroke-width="3" d="M1033.03,-919.648C1033.03,-893.69 1033.03,-858.266 1033.03,-828.622"/>
<polygon fill="black" stroke="black" points="1040.03,-828.277 1033.03,-808.277 1026.03,-828.277 1040.03,-828.277"/>
</g>
<!-- Hsp27 -->
<g id="node16" class="node"><title>Hsp27</title>
<ellipse fill="lightblue" stroke="lightblue" stroke-width="2" cx="497.027" cy="-36" rx="72" ry="36"/>
<text text-anchor="middle" x="497.027" y="-30.2" font-family="Helvetica,sans-Serif" font-size="22.00">Hsp27</text>
</g>
<!-- p38&#45;&gt;Hsp27 -->
<g id="edge13" class="edge"><title>p38&#45;&gt;Hsp27:center</title>
<path fill="none" stroke="black" stroke-width="3" d="M335.191,-736.151C331.637,-714.48 328.027,-686.251 328.027,-661 328.027,-661 328.027,-661 328.027,-147 328.027,-102.151 370.121,-74.4208 412.293,-57.8928"/>
<polygon fill="black" stroke="black" points="414.704,-64.4648 431.203,-51.169 410.014,-51.2739 414.704,-64.4648"/>
</g>
<!-- and2 -->
<g id="node22" class="node"><title>and2</title>
<ellipse fill="black" stroke="black" stroke-width="2" cx="848.027" cy="-588" rx="3" ry="3.5"/>
</g>
<!-- Akt&#45;&gt;and2 -->
<g id="edge25" class="edge"><title>Akt&#45;&gt;and2:center</title>
<path fill="none" stroke="red" stroke-width="3" d="M736.155,-738.252C767.525,-696.12 819.51,-626.3 839.674,-599.219"/>
<polygon fill="red" stroke="red" points="836.684,-586.49 852.726,-598.434 850.337,-601.643 834.295,-589.698 836.684,-586.49"/>
<polyline fill="none" stroke="red" points="845.899,-590.858 839.927,-598.879 "/>
</g>
<!-- Raf&#45;&gt;and2 -->
<g id="edge27" class="edge"><title>Raf&#45;&gt;and2:center</title>
<path fill="none" stroke="black" stroke-width="3" d="M1000.38,-739.528C960.708,-700.072 895.3,-635.017 864.736,-604.619"/>
<polygon fill="black" stroke="black" points="869.641,-599.624 850.524,-590.483 859.768,-609.55 869.641,-599.624"/>
</g>
<!-- Jnk -->
<g id="node11" class="node"><title>Jnk</title>
<ellipse fill="lightblue" stroke="lightblue" stroke-width="2" cx="526.027" cy="-588" rx="72" ry="36"/>
<text text-anchor="middle" x="526.027" y="-582.2" font-family="Helvetica,sans-Serif" font-size="22.00">Jnk</text>
</g>
<!-- and1&#45;&gt;Jnk -->
<g id="edge41" class="edge"><title>and1&#45;&gt;Jnk:center</title>
<path fill="none" stroke="black" stroke-width="3" d="M526.027,-768.489C526.027,-753.245 526.027,-691.461 526.027,-644.387"/>
<polygon fill="black" stroke="black" points="533.027,-644.334 526.027,-624.334 519.027,-644.334 533.027,-644.334"/>
</g>
<!-- cJun -->
<g id="node20" class="node"><title>cJun</title>
<ellipse fill="lightblue" stroke="lightblue" stroke-width="2" cx="526.027" cy="-404" rx="72" ry="36"/>
<text text-anchor="middle" x="526.027" y="-398.2" font-family="Helvetica,sans-Serif" font-size="22.00">cJun</text>
</g>
<!-- Jnk&#45;&gt;cJun -->
<g id="edge7" class="edge"><title>Jnk&#45;&gt;cJun:center</title>
<path fill="none" stroke="black" stroke-width="3" d="M526.027,-551.648C526.027,-525.69 526.027,-490.266 526.027,-460.622"/>
<polygon fill="black" stroke="black" points="533.027,-460.277 526.027,-440.277 519.027,-460.277 533.027,-460.277"/>
</g>
<!-- TNFa -->
<g id="node13" class="node"><title>TNFa</title>
<ellipse fill="#9acd32" stroke="#9acd32" cx="509.027" cy="-1140" rx="72" ry="36"/>
<text text-anchor="middle" x="509.027" y="-1134.2" font-family="Helvetica,sans-Serif" font-size="22.00">TNFa</text>
</g>
<!-- TNFa&#45;&gt;TRAF6 -->
<g id="edge21" class="edge"><title>TNFa&#45;&gt;TRAF6:center</title>
<path fill="none" stroke="black" stroke-width="3" d="M484.508,-1105.82C464.503,-1077.94 435.948,-1038.13 413.299,-1006.56"/>
<polygon fill="black" stroke="black" points="418.761,-1002.17 401.415,-989.995 407.385,-1010.33 418.761,-1002.17"/>
</g>
<!-- TNFa&#45;&gt;PI3K -->
<g id="edge23" class="edge"><title>TNFa&#45;&gt;PI3K:center</title>
<path fill="none" stroke="black" stroke-width="3" d="M543.752,-1108.37C576.126,-1078.88 624.766,-1034.57 661.264,-1001.33"/>
<polygon fill="black" stroke="black" points="666.007,-1006.48 676.079,-987.834 656.58,-996.127 666.007,-1006.48"/>
</g>
<!-- EGF -->
<g id="node14" class="node"><title>EGF</title>
<ellipse fill="#9acd32" stroke="#9acd32" cx="866.027" cy="-1140" rx="72" ry="36"/>
<text text-anchor="middle" x="866.027" y="-1134.2" font-family="Helvetica,sans-Serif" font-size="22.00">EGF</text>
</g>
<!-- EGF&#45;&gt;PI3K -->
<g id="edge33" class="edge"><title>EGF&#45;&gt;PI3K:center</title>
<path fill="none" stroke="black" stroke-width="3" d="M837.958,-1106.68C814.001,-1078.24 779.23,-1036.96 752.135,-1004.8"/>
<polygon fill="black" stroke="black" points="757.388,-1000.17 739.149,-989.384 746.681,-1009.19 757.388,-1000.17"/>
</g>
<!-- EGF&#45;&gt;Ras -->
<g id="edge35" class="edge"><title>EGF&#45;&gt;Ras:center</title>
<path fill="none" stroke="black" stroke-width="3" d="M895.883,-1107.1C921.925,-1078.41 960.04,-1036.42 989.482,-1003.98"/>
<polygon fill="black" stroke="black" points="994.89,-1008.43 1003.15,-988.92 984.523,-999.026 994.89,-1008.43"/>
</g>
<!-- p90RSK -->
<g id="node18" class="node"><title>p90RSK</title>
<ellipse fill="lightblue" stroke="lightblue" stroke-width="2" cx="848.027" cy="-36" rx="72" ry="36"/>
<text text-anchor="middle" x="848.027" y="-30.2" font-family="Helvetica,sans-Serif" font-size="22.00">p90RSK</text>
</g>
<!-- Erk -->
<g id="node19" class="node"><title>Erk</title>
<ellipse fill="lightblue" stroke="lightblue" stroke-width="2" cx="620.027" cy="-220" rx="72" ry="36"/>
<text text-anchor="middle" x="620.027" y="-214.2" font-family="Helvetica,sans-Serif" font-size="22.00">Erk</text>
</g>
<!-- Erk&#45;&gt;Hsp27 -->
<g id="edge9" class="edge"><title>Erk&#45;&gt;Hsp27:center</title>
<path fill="none" stroke="black" stroke-width="3" d="M597.18,-185.822C578.684,-158.153 552.344,-118.75 531.318,-87.2968"/>
<polygon fill="black" stroke="black" points="536.895,-83.0433 519.96,-70.3064 525.256,-90.8238 536.895,-83.0433"/>
</g>
<!-- cJun&#45;&gt;and1 -->
<g id="edge11" class="edge"><title>cJun&#45;&gt;and1:center</title>
<path fill="none" stroke="red" stroke-width="3" d="M595.348,-413.747C652.779,-426.194 725.027,-453.979 725.027,-515 725.027,-661 725.027,-661 725.027,-661 725.027,-703.85 582.525,-753.665 538.697,-767.973"/>
<polygon fill="red" stroke="red" points="534.109,-779.944 528.006,-760.898 531.815,-759.677 537.918,-778.723 534.109,-779.944"/>
<polyline fill="none" stroke="red" points="529.153,-771.031 538.676,-767.979 "/>
</g>
<!-- Mek -->
<g id="node21" class="node"><title>Mek</title>
<ellipse fill="white" stroke="black" stroke-width="2" cx="848.027" cy="-404" rx="72" ry="36"/>
<text text-anchor="middle" x="848.027" y="-398.2" font-family="Helvetica,sans-Serif" font-size="22.00">Mek</text>
</g>
<!-- Mek&#45;&gt;p90RSK -->
<g id="edge39" class="edge"><title>Mek&#45;&gt;p90RSK:center</title>
<path fill="none" stroke="black" stroke-width="3" d="M848.027,-367.756C848.027,-346.067 848.027,-317.956 848.027,-293 848.027,-293 848.027,-293 848.027,-147 848.027,-129.258 848.027,-109.921 848.027,-92.4307"/>
<polygon fill="black" stroke="black" points="855.027,-92.2437 848.027,-72.2438 841.027,-92.2438 855.027,-92.2437"/>
</g>
<!-- Mek&#45;&gt;Erk -->
<g id="edge37" class="edge"><title>Mek&#45;&gt;Erk:center</title>
<path fill="none" stroke="black" stroke-width="3" d="M809.865,-373.203C772.71,-343.217 715.884,-297.358 674.084,-263.625"/>
<polygon fill="black" stroke="black" points="678.274,-258.011 658.314,-250.898 669.481,-268.906 678.274,-258.011"/>
</g>
<!-- and2&#45;&gt;Mek -->
<g id="edge43" class="edge"><title>and2&#45;&gt;Mek:center</title>
<path fill="none" stroke="black" stroke-width="3" d="M848.027,-584.489C848.027,-569.245 848.027,-507.461 848.027,-460.387"/>
<polygon fill="black" stroke="black" points="855.027,-460.334 848.027,-440.334 841.027,-460.334 855.027,-460.334"/>
</g>
</g>
</svg>
