/* XPM */
static char * clandiw_xpm[] = {
"24 24 367 2",
"  	c None",
". 	c #3B3A38",
"+ 	c #3A3A39",
"@ 	c #373637",
"# 	c #343735",
"$ 	c #353736",
"% 	c #363436",
"& 	c #373837",
"* 	c #383838",
"= 	c #363636",
"- 	c #353535",
"; 	c #353534",
"> 	c #333333",
", 	c #313131",
"' 	c #2F2F2F",
") 	c #2E2E2E",
"! 	c #393D3E",
"~ 	c #383636",
"{ 	c #373536",
"] 	c #363535",
"^ 	c #343333",
"/ 	c #343434",
"( 	c #303030",
"_ 	c #2C2C2C",
": 	c #2B2B2B",
"< 	c #2B2A26",
"[ 	c #3B3532",
"} 	c #363531",
"| 	c #383536",
"1 	c #333233",
"2 	c #323132",
"3 	c #2C2D2D",
"4 	c #2B2E2E",
"5 	c #2F2C2C",
"6 	c #2B2C2B",
"7 	c #2B2B2C",
"8 	c #282828",
"9 	c #272829",
"0 	c #272626",
"a 	c #34383B",
"b 	c #35363A",
"c 	c #343839",
"d 	c #343531",
"e 	c #343432",
"f 	c #343433",
"g 	c #2E2B2D",
"h 	c #31302E",
"i 	c #372F29",
"j 	c #5E371E",
"k 	c #63381F",
"l 	c #412C20",
"m 	c #3B2E27",
"n 	c #3E2C22",
"o 	c #2C2622",
"p 	c #3F3633",
"q 	c #3D3737",
"r 	c #3A3634",
"s 	c #383533",
"t 	c #353333",
"u 	c #343232",
"v 	c #313133",
"w 	c #2F3132",
"x 	c #2D2D2D",
"y 	c #32302C",
"z 	c #6A3D20",
"A 	c #DA752C",
"B 	c #DD7927",
"C 	c #A54E17",
"D 	c #B2551A",
"E 	c #C16622",
"F 	c #7B3E1D",
"G 	c #38281D",
"H 	c #4A3B32",
"I 	c #603A25",
"J 	c #683E26",
"K 	c #6A3F20",
"L 	c #663B23",
"M 	c #523529",
"N 	c #3D3029",
"O 	c #332E2A",
"P 	c #2D2D2C",
"Q 	c #3F2C2F",
"R 	c #A5561A",
"S 	c #F09534",
"T 	c #DD701D",
"U 	c #E67C24",
"V 	c #F09C3C",
"W 	c #DD7019",
"X 	c #DD7921",
"Y 	c #793D11",
"Z 	c #2A221D",
"` 	c #43352C",
" .	c #634528",
"..	c #925B25",
"+.	c #BC6D25",
"@.	c #DB7B25",
"#.	c #DF7E21",
"$.	c #D37016",
"%.	c #AF5918",
"&.	c #75431C",
"*.	c #523422",
"=.	c #3B2F2B",
"-.	c #2C322F",
";.	c #513123",
">.	c #CB7321",
",.	c #E38422",
"'.	c #D05F12",
").	c #F19430",
"!.	c #EA922C",
"~.	c #B14909",
"{.	c #D77622",
"].	c #C86D1F",
"^.	c #482718",
"/.	c #3D2E28",
"(.	c #3E3028",
"_.	c #4B3529",
":.	c #613D24",
"<.	c #864A1E",
"[.	c #AB5D1B",
"}.	c #D47E24",
"|.	c #EC9528",
"1.	c #EE9B2E",
"2.	c #D07E23",
"3.	c #A35518",
"4.	c #6F381D",
"5.	c #733E1B",
"6.	c #E28A25",
"7.	c #D9751A",
"8.	c #B85510",
"9.	c #F5A935",
"0.	c #E2891F",
"a.	c #7D3B16",
"b.	c #B75F18",
"c.	c #E99727",
"d.	c #5D3115",
"e.	c #332C25",
"f.	c #2B2828",
"g.	c #2F2A2E",
"h.	c #333332",
"i.	c #3C322B",
"j.	c #553324",
"k.	c #8C4218",
"l.	c #C16415",
"m.	c #ECA12C",
"n.	c #F5C135",
"o.	c #E69426",
"p.	c #CD670C",
"q.	c #EA9E2D",
"r.	c #C86E16",
"s.	c #A24E10",
"t.	c #F3B532",
"u.	c #DB861C",
"v.	c #7C3C1C",
"w.	c #C06B18",
"x.	c #EBA72D",
"y.	c #633417",
"z.	c #2C2420",
"A.	c #24201E",
"B.	c #292827",
"C.	c #313031",
"D.	c #332E2B",
"E.	c #4A3123",
"F.	c #5C3B23",
"G.	c #5C3519",
"H.	c #7B3D19",
"I.	c #B56216",
"J.	c #DFA22D",
"K.	c #F2B92F",
"L.	c #F4B02D",
"M.	c #DB7D18",
"N.	c #CC600E",
"O.	c #F1B932",
"P.	c #D67818",
"Q.	c #693C1C",
"R.	c #A76F23",
"S.	c #AC6A1C",
"T.	c #402A1B",
"U.	c #201F1B",
"V.	c #29241F",
"W.	c #252425",
"X.	c #2E2A2B",
"Y.	c #2D3031",
"Z.	c #423128",
"`.	c #AA6214",
" +	c #E1961F",
".+	c #7B491D",
"++	c #372B24",
"@+	c #3D2F23",
"#+	c #723A1A",
"$+	c #CE6D0B",
"%+	c #F4A027",
"&+	c #ED9E1D",
"*+	c #F5961F",
"=+	c #F99D23",
"-+	c #D36816",
";+	c #5C331D",
">+	c #402F29",
",+	c #3B2C20",
"'+	c #242423",
")+	c #1A1A16",
"!+	c #2E2622",
"~+	c #262320",
"{+	c #262524",
"]+	c #282625",
"^+	c #2A2A2C",
"/+	c #4B2E1F",
"(+	c #D58817",
"_+	c #ECB227",
":+	c #804718",
"<+	c #2F2F2D",
"[+	c #2C2D29",
"}+	c #462C24",
"|+	c #C0680B",
"1+	c #ECA11D",
"2+	c #CD5B09",
"3+	c #DC7E18",
"4+	c #F9AB23",
"5+	c #E89D18",
"6+	c #B35B0F",
"7+	c #523823",
"8+	c #322A24",
"9+	c #202122",
"0+	c #322723",
"a+	c #2A2723",
"b+	c #21201F",
"c+	c #1F201E",
"d+	c #252523",
"e+	c #2F2924",
"f+	c #6D3E15",
"g+	c #78421C",
"h+	c #402E22",
"i+	c #2C292A",
"j+	c #2C292B",
"k+	c #6D3917",
"l+	c #E69B1A",
"m+	c #D69521",
"n+	c #783C0C",
"o+	c #D07014",
"p+	c #EDB021",
"q+	c #E2951F",
"r+	c #E9A721",
"s+	c #C1791A",
"t+	c #643B17",
"u+	c #2E231F",
"v+	c #2E231C",
"w+	c #2B2621",
"x+	c #222120",
"y+	c #1E1E1D",
"z+	c #1E1D1B",
"A+	c #23201B",
"B+	c #26221C",
"C+	c #291F20",
"D+	c #221F20",
"E+	c #271E22",
"F+	c #402B14",
"G+	c #AD600F",
"H+	c #F8DB37",
"I+	c #A65F15",
"J+	c #653313",
"K+	c #DD9617",
"L+	c #C67E1B",
"M+	c #683512",
"N+	c #814911",
"O+	c #B37017",
"P+	c #B8871F",
"Q+	c #4C331E",
"R+	c #252521",
"S+	c #23201D",
"T+	c #1E1C1B",
"U+	c #1C1C1C",
"V+	c #39291A",
"W+	c #673F19",
"X+	c #543611",
"Y+	c #452A13",
"Z+	c #512B16",
"`+	c #A55A11",
" @	c #F4C73A",
".@	c #D29A1A",
"+@	c #5F2D14",
"@@	c #532E11",
"#@	c #B18025",
"$@	c #5B3510",
"%@	c #211A1A",
"&@	c #261D1B",
"*@	c #3D2918",
"=@	c #633719",
"-@	c #503B18",
";@	c #22201D",
">@	c #22201F",
",@	c #201F1E",
"'@	c #1B1A1B",
")@	c #2C1F16",
"!@	c #714B1B",
"~@	c #B47B1E",
"{@	c #C68723",
"]@	c #DA992A",
"^@	c #F3C035",
"/@	c #D29024",
"(@	c #6E360D",
"_@	c #241B17",
":@	c #2A1D19",
"<@	c #382716",
"[@	c #241C18",
"}@	c #191816",
"|@	c #18181A",
"1@	c #1A1919",
"2@	c #1C1C18",
"3@	c #181C1D",
"4@	c #211D1B",
"5@	c #1B1B1B",
"6@	c #1D1B1A",
"7@	c #301F13",
"8@	c #5D2F19",
"9@	c #894D13",
"0@	c #AF5F18",
"a@	c #955616",
"b@	c #513013",
"c@	c #1F1D16",
"d@	c #1A1518",
"e@	c #191817",
"f@	c #1A171F",
"g@	c #19181D",
"h@	c #1C1919",
"i@	c #1A1916",
"j@	c #151915",
"k@	c #1E1816",
"l@	c #1C1D21",
"m@	c #1B1A18",
"n@	c #19191C",
"o@	c #1A1B15",
"p@	c #271C15",
"q@	c #241D15",
"r@	c #271B18",
"s@	c #1A1819",
"t@	c #181A1A",
"u@	c #181615",
"v@	c #171919",
"w@	c #1B1A15",
"x@	c #141919",
"y@	c #181815",
"z@	c #19191A",
"A@	c #1B191C",
"B@	c #191919",
"C@	c #1A1917",
"D@	c #171818",
"E@	c #17191A",
"F@	c #1A191B",
"G@	c #141613",
"H@	c #171717",
"I@	c #131817",
"J@	c #1E1616",
"K@	c #161B19",
"L@	c #1A1A1A",
"M@	c #171617",
"N@	c #171616",
"O@	c #181818",
"P@	c #151516",
"Q@	c #131617",
"R@	c #1B1915",
"S@	c #171518",
"T@	c #171614",
"U@	c #161715",
"V@	c #161816",
"W@	c #161718",
"X@	c #131414",
"Y@	c #191917",
"Z@	c #1D1A17",
"                                                ",
"                  . + @ # $ %                   ",
"              & * = - - ; > , , ' )             ",
"          ! ~ { ] ^ / ( ( ( ) ' _ : <           ",
"        [ } | = 1 2 ( ) 3 4 5 6 7 8 9 0         ",
"      a ; b c d e f ( _ g h i j k l m n o       ",
"    p q r s t u v w ' x 3 y z A B C D E F G     ",
"    H I J K L M N O _ x P Q R S T U V W X Y Z   ",
"  `  ...+.@.#.$.%.&.*.=.-.;.>.,.'.).!.~.{.].^.  ",
"  /.(._.:.<.[.}.|.1.2.3.4.5.6.7.8.9.0.a.b.c.d.  ",
"  e.f.g.h.d i.j.k.l.m.n.o.p.q.r.s.t.u.v.w.x.y.  ",
"  z.A.B.C., D.E.F.G.H.I.J.K.L.M.N.O.P.Q.R.S.T.U.",
"  V.A.W.X.Y.Z.`. +.+++@+#+$+%+&+*+=+-+;+>+,+'+)+",
"  !+~+{+]+^+/+(+_+:+<+[+}+|+1+2+3+4+5+6+7+8+9+  ",
"  0+a+b+c+d+e+f+g+h+i+j+k+l+m+n+o+p+q+r+s+t+u+  ",
"  v+w+x+y+z+A+B+C+D+E+F+G+H+I+J+K+L+M+N+O+P+Q+  ",
"    R+S+T+U+V+W+X+Y+Z+`+ @.@+@@@#@$@%@&@*@=@-@  ",
"    ;@>@,@'@)@!@~@{@]@^@/@(@_@:@<@[@}@|@1@2@    ",
"      3@4@5@6@7@8@9@0@a@b@c@d@e@f@g@h@i@e@j@    ",
"        k@l@m@n@o@p@q@r@h@s@t@u@v@w@x@y@z@      ",
"          o@A@B@e@u@C@D@E@B@B@F@G@H@I@J@        ",
"            K@L@H@H@M@N@O@P@H@Q@R@S@            ",
"                T@U@U@V@W@X@Y@N@Z@              ",
"                                                "};
