/* XPM */
static char * clandiw_off_xpm[] = {
"24 24 134 2",
"  	c None",
". 	c #2B2B2B",
"+ 	c #2A2A2A",
"@ 	c #2D2D2D",
"# 	c #353535",
"$ 	c #373737",
"% 	c #393939",
"& 	c #343434",
"* 	c #323232",
"= 	c #2C2C2C",
"- 	c #282828",
"; 	c #383838",
"> 	c #363636",
", 	c #333333",
"' 	c #313131",
") 	c #2F2F2F",
"! 	c #242424",
"~ 	c #2E2E2E",
"{ 	c #292929",
"] 	c #262626",
"^ 	c #1D1D1D",
"/ 	c #3A3A3A",
"( 	c #4A4A4A",
"_ 	c #838383",
": 	c #727272",
"< 	c #4C4C4C",
"[ 	c #565656",
"} 	c #5C5C5C",
"| 	c #404040",
"1 	c #3E3E3E",
"2 	c #3D3D3D",
"3 	c #707070",
"4 	c #A4A4A4",
"5 	c #919191",
"6 	c #7C7C7C",
"7 	c #9E9E9E",
"8 	c #8B8B8B",
"9 	c #787878",
"0 	c #1F1F1F",
"a 	c #424242",
"b 	c #5B5B5B",
"c 	c #808080",
"d 	c #777777",
"e 	c #5D5D5D",
"f 	c #464646",
"g 	c #303030",
"h 	c #434343",
"i 	c #959595",
"j 	c #8C8C8C",
"k 	c #848484",
"l 	c #999999",
"m 	c #9B9B9B",
"n 	c #616161",
"o 	c #686868",
"p 	c #3B3B3B",
"q 	c #484848",
"r 	c #949494",
"s 	c #ABABAB",
"t 	c #9A9A9A",
"u 	c #797979",
"v 	c #595959",
"w 	c #515151",
"x 	c #AEAEAE",
"y 	c #7A7A7A",
"z 	c #B2B2B2",
"A 	c #878787",
"B 	c #474747",
"C 	c #7B7B7B",
"D 	c #939393",
"E 	c #5A5A5A",
"F 	c #6C6C6C",
"G 	c #6F6F6F",
"H 	c #B8B8B8",
"I 	c #676767",
"J 	c #C3C3C3",
"K 	c #A7A7A7",
"L 	c #232323",
"M 	c #505050",
"N 	c #747474",
"O 	c #B0B0B0",
"P 	c #B3B3B3",
"Q 	c #696969",
"R 	c #CCCCCC",
"S 	c #212121",
"T 	c #666666",
"U 	c #6B6B6B",
"V 	c #B7B7B7",
"W 	c #A6A6A6",
"X 	c #8D8D8D",
"Y 	c #BEBEBE",
"Z 	c #3C3C3C",
"` 	c #252525",
" .	c #1C1C1C",
"..	c #272727",
"+.	c #535353",
"@.	c #B9B9B9",
"#.	c #8F8F8F",
"$.	c #8A8A8A",
"%.	c #A0A0A0",
"&.	c #AAAAAA",
"*.	c #818181",
"=.	c #171717",
"-.	c #525252",
";.	c #969696",
">.	c #AFAFAF",
",.	c #BABABA",
"'.	c #9C9C9C",
").	c #1E1E1E",
"!.	c #222222",
"~.	c #737373",
"{.	c #C1C1C1",
"].	c #646464",
"^.	c #909090",
"/.	c #1B1B1B",
"(.	c #202020",
"_.	c #585858",
":.	c #BBBBBB",
"<.	c #9F9F9F",
"[.	c #4D4D4D",
"}.	c #494949",
"|.	c #6E6E6E",
"1.	c #3F3F3F",
"2.	c #575757",
"3.	c #BFBFBF",
"4.	c #B4B4B4",
"5.	c #181818",
"6.	c #191919",
"7.	c #A9A9A9",
"8.	c #C0C0C0",
"9.	c #1A1A1A",
"0.	c #414141",
"a.	c #161616",
"b.	c #151515",
"c.	c #121212",
"                    . + @                       ",
"              # # $ % $ # & * = -               ",
"          * $ ; $ $ > * > , ' ' ) . !           ",
"        & $ > > # , , ' ) ) ~ ) = . + !         ",
"      $ > $ # & ' ' ) ~ ~ ~ = = + - { ] ]       ",
"    & % & $ # & & , ~ = @ @ * ; > + @ { ] ^     ",
"  & / $ > # & & ' * ~ @ = * ( _ : < [ } % -     ",
"  % / | 1 2 $ * ) @ @ = ~ ; 3 4 5 6 7 8 9 % 0   ",
"  a b 3 c _ d e f # ) ) g h i j k l m n 5 o ]   ",
"' # p q } d r s t u v a > w x d y z A B C D *   ",
"~ @ @ * > ; h E _ 4 z t F G H I 3 J _ f 9 K %   ",
". L ] ) * g ) & p M N 4 J O P Q N R 9 q r 8 g 0 ",
"- S L + g ~ 2 T b * , f U K V W X Y : ; Z $ `  .",
"..L L ... @ +.@.8 $ = . | #.D $.%.&.*.B ' { S =.",
". ..L S ] - a 9 [ * . = < &.6 -.;.>.,.'.M ' L   ",
"+ ..S ).0 !.- . { L ] ' ~.{.e f s 8 ].^.7 E {   ",
"  ` !.)./.^ ' ..S (.{ _.:.<.$ [.t }.` g w |.a   ",
"  ! (.L  .).1.G 2.[.U 3.4.[.!.& a !.5.6.(.-     ",
"    0 ^ /. .L -.5 7.8.m q (.5.9.^ 9.6.9.6.5.    ",
"    9.^  . . .0 ~ p 0.g 0 5.5.=.5.9.6.6.6.      ",
"        9.5.6.6.9.9.9.5.6./.5.a.5.5.=.=.        ",
"        /./.9.6.a.=.5.9.5.5.5.6.b.=.=.          ",
"            9.5.=.=.=.=.5.a.5.a.5.=.            ",
"                c.6.=.a.=.a.=.                  "};
