<?xml version="1.0" encoding="utf-8" ?>
<svg baseProfile="full" height="110.0" version="1.1" width="70.0" xmlns="http://www.w3.org/2000/svg" xmlns:ev="http://www.w3.org/2001/xml-events" xmlns:xlink="http://www.w3.org/1999/xlink"><defs /><g id="four_crosses" transform="translate(5.0,30.0)"><polygon fill="#00FF00" fill-opacity="0.5" points="-2.0,5.0 2.0,5.0 0,0 5.0,2.0 5.0,-2.0 0,0 2.0,-5.0 -2.0,-5.0 0,0 -5.0,-2.0 -5.0,2.0 0,0" /><polygon fill="#00FF00" fill-opacity="0.5" points="58.0,5.0 62.0,5.0 60,0 65.0,2.0 65.0,-2.0 60,0 62.0,-5.0 58.0,-5.0 60,0 55.0,-2.0 55.0,2.0 60,0" /><polygon fill="#00FF00" fill-opacity="0.5" points="-2.0,80.0 2.0,80.0 0,75 5.0,77.0 5.0,73.0 0,75 2.0,70.0 -2.0,70.0 0,75 -5.0,73.0 -5.0,77.0 0,75" /><polygon fill="#00FF00" fill-opacity="0.5" points="58.0,-20.0 62.0,-20.0 60,-25 65.0,-23.0 65.0,-27.0 60,-25 62.0,-30.0 58.0,-30.0 60,-25 55.0,-27.0 55.0,-23.0 60,-25" /></g></svg>