<?xml version="1.0" encoding="utf-8" ?>
<svg baseProfile="full" height="110.0" version="1.1" width="110.0" xmlns="http://www.w3.org/2000/svg" xmlns:ev="http://www.w3.org/2001/xml-events" xmlns:xlink="http://www.w3.org/1999/xlink"><defs /><g id="four_crosses" transform="translate(5.0,5.0)"><polygon fill="#00FF00" fill-opacity="0.5" points="-2.0,5.0 2.0,5.0 0,0 5.0,2.0 5.0,-2.0 0,0 2.0,-5.0 -2.0,-5.0 0,0 -5.0,-2.0 -5.0,2.0 0,0" /><polygon fill="#00FF00" fill-opacity="0.5" points="98.0,5.0 102.0,5.0 100,0 105.0,2.0 105.0,-2.0 100,0 102.0,-5.0 98.0,-5.0 100,0 95.0,-2.0 95.0,2.0 100,0" /><polygon fill="#00FF00" fill-opacity="0.5" points="-2.0,105.0 2.0,105.0 0,100 5.0,102.0 5.0,98.0 0,100 2.0,95.0 -2.0,95.0 0,100 -5.0,98.0 -5.0,102.0 0,100" /><polygon fill="#00FF00" fill-opacity="0.5" points="98.0,105.0 102.0,105.0 100,100 105.0,102.0 105.0,98.0 100,100 102.0,95.0 98.0,95.0 100,100 95.0,98.0 95.0,102.0 100,100" /></g><g id="square" transform="translate(5.0,5.0)"><rect fill="#FF0000" fill-opacity="0.5" height="20" width="10" x="45.0" y="40.0" /></g></svg>