<?xml version="1.0" encoding="UTF-8" standalone="no"?>
<!DOCTYPE svg PUBLIC "-//W3C//DTD SVG 1.1//EN"
 "http://www.w3.org/Graphics/SVG/1.1/DTD/svg11.dtd">
<!-- Generated by graphviz version 2.26.3 (20100126.1600)
 -->
<!-- Title: foo Pages: 1 -->
<svg width="1080pt" height="1080pt"
 viewBox="0.00 0.00 1080.00 1080.00" xmlns="http://www.w3.org/2000/svg" xmlns:xlink="http://www.w3.org/1999/xlink">
<g id="graph1" class="graph" transform="scale(0.9375 0.9375) rotate(0) translate(36 1116)">
<title>foo</title>
<polygon fill="white" stroke="white" points="-36,37 -36,-1116 1117,-1116 1117,37 -36,37"/>
<!-- TRAF6 -->
<g id="node2" class="node"><title>TRAF6</title>
<ellipse fill="white" stroke="black" stroke-width="2" cx="706.11" cy="-840" rx="72" ry="36"/>
<text text-anchor="middle" x="706.11" y="-834.2" font-family="Helvetica,sans-Serif" font-size="22.00">TRAF6</text>
</g>
<!-- p38 -->
<g id="node6" class="node"><title>p38</title>
<ellipse fill="white" stroke="black" stroke-width="2" cx="825.11" cy="-640" rx="72" ry="36"/>
<text text-anchor="middle" x="825.11" y="-634.2" font-family="Helvetica,sans-Serif" font-size="22.00">p38</text>
</g>
<!-- TRAF6&#45;&gt;p38 -->
<g id="edge15" class="edge"><title>TRAF6&#45;&gt;p38:center</title>
<path fill="none" stroke="black" stroke-width="3" d="M726.838,-805.163C745.381,-773.998 772.822,-727.879 793.998,-692.289"/>
<polygon fill="black" stroke="black" points="800.209,-695.54 804.42,-674.773 788.177,-688.381 800.209,-695.54"/>
</g>
<!-- NFkB -->
<g id="node15" class="node"><title>NFkB</title>
<ellipse fill="lightblue" stroke="lightblue" stroke-width="2" cx="973.11" cy="-39" rx="72" ry="36"/>
<text text-anchor="middle" x="973.11" y="-33.2" font-family="Helvetica,sans-Serif" font-size="22.00">NFkB</text>
</g>
<!-- TRAF6&#45;&gt;NFkB -->
<g id="edge19" class="edge"><title>TRAF6&#45;&gt;NFkB:center</title>
<path fill="none" stroke="black" stroke-width="3" d="M771.084,-824.471C850.116,-803.648 973.11,-764.15 973.11,-720 973.11,-720 973.11,-720 973.11,-160 973.11,-138.796 973.11,-115.502 973.11,-95.0626"/>
<polygon fill="black" stroke="black" points="980.11,-95.0031 973.11,-75.0031 966.11,-95.0031 980.11,-95.0031"/>
</g>
<!-- Jnk -->
<g id="node18" class="node"><title>Jnk</title>
<ellipse fill="lightblue" stroke="lightblue" stroke-width="2" cx="586.11" cy="-640" rx="72" ry="36"/>
<text text-anchor="middle" x="586.11" y="-634.2" font-family="Helvetica,sans-Serif" font-size="22.00">Jnk</text>
</g>
<!-- TRAF6&#45;&gt;Jnk -->
<g id="edge17" class="edge"><title>TRAF6&#45;&gt;Jnk:center</title>
<path fill="none" stroke="black" stroke-width="3" d="M685.207,-805.163C666.509,-773.998 638.837,-727.879 617.483,-692.289"/>
<polygon fill="black" stroke="black" points="623.266,-688.321 606.973,-674.773 611.261,-695.524 623.266,-688.321"/>
</g>
<!-- PI3K -->
<g id="node3" class="node"><title>PI3K</title>
<ellipse fill="orangered" stroke="orangered" stroke-width="2" cx="106.11" cy="-840" rx="72" ry="36"/>
<text text-anchor="middle" x="106.11" y="-834.2" font-family="Helvetica,sans-Serif" font-size="22.00">PI3K</text>
</g>
<!-- Akt -->
<g id="node8" class="node"><title>Akt</title>
<ellipse fill="lightblue" stroke="lightblue" stroke-width="2" cx="106.11" cy="-640" rx="72" ry="36"/>
<text text-anchor="middle" x="106.11" y="-634.2" font-family="Helvetica,sans-Serif" font-size="22.00">Akt</text>
</g>
<!-- PI3K&#45;&gt;Akt -->
<g id="edge25" class="edge"><title>PI3K&#45;&gt;Akt:center</title>
<path fill="none" stroke="black" stroke-width="3" d="M106.11,-803.782C106.11,-773.858 106.11,-730.857 106.11,-696.425"/>
<polygon fill="black" stroke="black" points="113.11,-696.286 106.11,-676.286 99.1097,-696.286 113.11,-696.286"/>
</g>
<!-- Ras -->
<g id="node4" class="node"><title>Ras</title>
<ellipse fill="white" stroke="black" stroke-width="2" cx="346.11" cy="-840" rx="72" ry="36"/>
<text text-anchor="middle" x="346.11" y="-834.2" font-family="Helvetica,sans-Serif" font-size="22.00">Ras</text>
</g>
<!-- Raf -->
<g id="node7" class="node"><title>Raf</title>
<ellipse fill="orangered" stroke="orangered" stroke-width="2" cx="346.11" cy="-640" rx="72" ry="36"/>
<text text-anchor="middle" x="346.11" y="-634.2" font-family="Helvetica,sans-Serif" font-size="22.00">Raf</text>
</g>
<!-- Ras&#45;&gt;Raf -->
<g id="edge27" class="edge"><title>Ras&#45;&gt;Raf:center</title>
<path fill="none" stroke="black" stroke-width="3" d="M346.11,-803.782C346.11,-773.858 346.11,-730.857 346.11,-696.425"/>
<polygon fill="black" stroke="black" points="353.11,-696.286 346.11,-676.286 339.11,-696.286 353.11,-696.286"/>
</g>
<!-- Hsp27 -->
<g id="node16" class="node"><title>Hsp27</title>
<ellipse fill="lightblue" stroke="lightblue" stroke-width="2" cx="620.11" cy="-39" rx="72" ry="36"/>
<text text-anchor="middle" x="620.11" y="-33.2" font-family="Helvetica,sans-Serif" font-size="22.00">Hsp27</text>
</g>
<!-- p38&#45;&gt;Hsp27 -->
<g id="edge23" class="edge"><title>p38&#45;&gt;Hsp27:center</title>
<path fill="none" stroke="black" stroke-width="3" d="M810.608,-604.644C802.141,-580.854 793.11,-548.552 793.11,-519 793.11,-519 793.11,-519 793.11,-160 793.11,-111.734 747.332,-81.1062 702.873,-62.7424"/>
<polygon fill="black" stroke="black" points="705.22,-56.1461 684.037,-55.6073 700.26,-69.2382 705.22,-56.1461"/>
</g>
<!-- Mek -->
<g id="node10" class="node"><title>Mek</title>
<ellipse fill="white" stroke="black" stroke-width="2" cx="346.11" cy="-440" rx="72" ry="36"/>
<text text-anchor="middle" x="346.11" y="-434.2" font-family="Helvetica,sans-Serif" font-size="22.00">Mek</text>
</g>
<!-- Raf&#45;&gt;Mek -->
<g id="edge29" class="edge"><title>Raf&#45;&gt;Mek:center</title>
<path fill="none" stroke="black" stroke-width="3" d="M346.11,-603.782C346.11,-573.858 346.11,-530.857 346.11,-496.425"/>
<polygon fill="black" stroke="black" points="353.11,-496.286 346.11,-476.286 339.11,-496.286 353.11,-496.286"/>
</g>
<!-- Akt&#45;&gt;Mek -->
<g id="edge31" class="edge"><title>Akt&#45;&gt;Mek:center</title>
<path fill="none" stroke="red" stroke-width="3" d="M143.346,-608.969C185.825,-573.571 255.28,-515.691 300.847,-477.719"/>
<polygon fill="red" stroke="red" points="300.847,-464.701 313.651,-480.066 310.578,-482.627 297.774,-467.262 300.847,-464.701"/>
<polyline fill="none" stroke="red" points="308.786,-471.103 301.103,-477.505 "/>
</g>
<!-- p90RSK -->
<g id="node17" class="node"><title>p90RSK</title>
<ellipse fill="lightblue" stroke="lightblue" stroke-width="2" cx="346.11" cy="-39" rx="72" ry="36"/>
<text text-anchor="middle" x="346.11" y="-33.2" font-family="Helvetica,sans-Serif" font-size="22.00">p90RSK</text>
</g>
<!-- Mek&#45;&gt;p90RSK -->
<g id="edge33" class="edge"><title>Mek&#45;&gt;p90RSK:center</title>
<path fill="none" stroke="black" stroke-width="3" d="M346.11,-403.997C346.11,-379.933 346.11,-347.569 346.11,-319 346.11,-319 346.11,-319 346.11,-160 346.11,-138.796 346.11,-115.502 346.11,-95.0626"/>
<polygon fill="black" stroke="black" points="353.11,-95.0031 346.11,-75.0031 339.11,-95.0031 353.11,-95.0031"/>
</g>
<!-- Erk -->
<g id="node19" class="node"><title>Erk</title>
<ellipse fill="lightblue" stroke="lightblue" stroke-width="2" cx="578.11" cy="-240" rx="72" ry="36"/>
<text text-anchor="middle" x="578.11" y="-234.2" font-family="Helvetica,sans-Serif" font-size="22.00">Erk</text>
</g>
<!-- Mek&#45;&gt;Erk -->
<g id="edge35" class="edge"><title>Mek&#45;&gt;Erk:center</title>
<path fill="none" stroke="black" stroke-width="3" d="M382.36,-408.75C421.064,-375.384 482.727,-322.227 526.493,-284.497"/>
<polygon fill="black" stroke="black" points="531.154,-289.721 541.732,-271.36 522.013,-279.117 531.154,-289.721"/>
</g>
<!-- EGF -->
<g id="node12" class="node"><title>EGF</title>
<ellipse fill="#9acd32" stroke="#9acd32" cx="217.11" cy="-1041" rx="72" ry="36"/>
<text text-anchor="middle" x="217.11" y="-1035.2" font-family="Helvetica,sans-Serif" font-size="22.00">EGF</text>
</g>
<!-- EGF&#45;&gt;PI3K -->
<g id="edge9" class="edge"><title>EGF&#45;&gt;PI3K:center</title>
<path fill="none" stroke="black" stroke-width="3" d="M197.775,-1005.99C180.479,-974.668 154.882,-928.318 135.13,-892.551"/>
<polygon fill="black" stroke="black" points="141.205,-889.071 125.409,-874.947 128.949,-895.839 141.205,-889.071"/>
</g>
<!-- EGF&#45;&gt;Ras -->
<g id="edge7" class="edge"><title>EGF&#45;&gt;Ras:center</title>
<path fill="none" stroke="black" stroke-width="3" d="M239.285,-1006.45C259.56,-974.856 289.824,-927.7 312.969,-891.638"/>
<polygon fill="black" stroke="black" points="319.096,-895.051 324.008,-874.438 307.314,-887.489 319.096,-895.051"/>
</g>
<!-- TNFa -->
<g id="node13" class="node"><title>TNFa</title>
<ellipse fill="#9acd32" stroke="#9acd32" cx="484.11" cy="-1041" rx="72" ry="36"/>
<text text-anchor="middle" x="484.11" y="-1035.2" font-family="Helvetica,sans-Serif" font-size="22.00">TNFa</text>
</g>
<!-- TNFa&#45;&gt;TRAF6 -->
<g id="edge13" class="edge"><title>TNFa&#45;&gt;TRAF6:center</title>
<path fill="none" stroke="black" stroke-width="3" d="M519.286,-1009.15C556.146,-975.778 614.374,-923.058 656.025,-885.347"/>
<polygon fill="black" stroke="black" points="660.97,-890.313 671.098,-871.7 651.573,-879.934 660.97,-890.313"/>
</g>
<!-- TNFa&#45;&gt;PI3K -->
<g id="edge11" class="edge"><title>TNFa&#45;&gt;PI3K:center</title>
<path fill="none" stroke="black" stroke-width="3" d="M434.693,-1014.72C367.909,-979.211 248.59,-915.763 173.592,-875.883"/>
<polygon fill="black" stroke="black" points="176.484,-869.493 155.539,-866.284 169.911,-881.854 176.484,-869.493"/>
</g>
<!-- cJun -->
<g id="node20" class="node"><title>cJun</title>
<ellipse fill="lightblue" stroke="lightblue" stroke-width="2" cx="586.11" cy="-440" rx="72" ry="36"/>
<text text-anchor="middle" x="586.11" y="-434.2" font-family="Helvetica,sans-Serif" font-size="22.00">cJun</text>
</g>
<!-- Jnk&#45;&gt;cJun -->
<g id="edge21" class="edge"><title>Jnk&#45;&gt;cJun:center</title>
<path fill="none" stroke="black" stroke-width="3" d="M580.77,-603.782C579.209,-573.765 578.944,-530.589 579.974,-496.103"/>
<polygon fill="black" stroke="black" points="586.976,-496.214 580.784,-475.949 572.987,-495.652 586.976,-496.214"/>
</g>
<!-- Erk&#45;&gt;Hsp27 -->
<g id="edge37" class="edge"><title>Erk&#45;&gt;Hsp27:center</title>
<path fill="none" stroke="black" stroke-width="3" d="M585.618,-204.065C591.959,-173.719 601.147,-129.752 608.445,-94.8238"/>
<polygon fill="black" stroke="black" points="615.356,-95.9709 612.595,-74.9619 601.652,-93.1073 615.356,-95.9709"/>
</g>
<!-- cJun&#45;&gt;Jnk -->
<g id="edge39" class="edge"><title>cJun&#45;&gt;Jnk:center</title>
<path fill="none" stroke="red" stroke-width="3" d="M591.436,-475.949C593.159,-508.852 593.318,-557.73 591.912,-593.575"/>
<polygon fill="red" stroke="red" points="601.53,-602.236 581.55,-601.331 581.731,-597.335 601.711,-598.24 601.53,-602.236"/>
<polyline fill="none" stroke="red" points="591.45,-603.782 591.902,-593.792 "/>
</g>
</g>
</svg>
