<?xml version="1.0" encoding="UTF-8" standalone="no"?>
<!DOCTYPE svg PUBLIC "-//W3C//DTD SVG 1.1//EN"
 "http://www.w3.org/Graphics/SVG/1.1/DTD/svg11.dtd">
<!-- Generated by graphviz version 2.26.3 (20100126.1600)
 -->
<!-- Title: foo Pages: 1 -->
<svg width="1440pt" height="1440pt"
 viewBox="0.00 0.00 1440.00 1440.00" xmlns="http://www.w3.org/2000/svg" xmlns:xlink="http://www.w3.org/1999/xlink">
<g id="graph1" class="graph" transform="scale(0.462428 0.462428) rotate(0) translate(36 3078)">
<title>foo</title>
<polygon fill="white" stroke="white" points="-36,37 -36,-3078 3079,-3078 3079,37 -36,37"/>
<!-- igfr -->
<g id="node2" class="node"><title>igfr</title>
<ellipse fill="white" stroke="black" stroke-width="2" cx="1404.43" cy="-2822" rx="72" ry="36"/>
<text text-anchor="middle" x="1404.43" y="-2816.2" font-family="Helvetica,sans-Serif" font-size="22.00">igfr</text>
</g>
<!-- irs1 -->
<g id="node20" class="node"><title>irs1</title>
<ellipse fill="white" stroke="black" stroke-width="2" cx="1557.43" cy="-2460" rx="72" ry="36"/>
<text text-anchor="middle" x="1557.43" y="-2454.2" font-family="Helvetica,sans-Serif" font-size="22.00">irs1</text>
</g>
<!-- igfr&#45;&gt;irs1 -->
<g id="edge49" class="edge"><title>igfr&#45;&gt;irs1:center</title>
<path fill="none" stroke="black" stroke-width="3" d="M1419.38,-2786.63C1446.26,-2723.02 1502.92,-2588.96 1534.66,-2513.87"/>
<polygon fill="black" stroke="black" points="1541.19,-2516.39 1542.53,-2495.25 1528.3,-2510.94 1541.19,-2516.39"/>
</g>
<!-- shc -->
<g id="node32" class="node"><title>shc</title>
<ellipse fill="white" stroke="black" stroke-width="2" cx="1000.43" cy="-2568" rx="72" ry="36"/>
<text text-anchor="middle" x="1000.43" y="-2562.2" font-family="Helvetica,sans-Serif" font-size="22.00">shc</text>
</g>
<!-- igfr&#45;&gt;shc -->
<g id="edge51" class="edge"><title>igfr&#45;&gt;shc:center</title>
<path fill="none" stroke="black" stroke-width="3" d="M1359.26,-2793.6C1286.75,-2748.01 1144.23,-2658.41 1062.31,-2606.9"/>
<polygon fill="black" stroke="black" points="1065.96,-2600.93 1045.31,-2596.21 1058.51,-2612.79 1065.96,-2600.93"/>
</g>
<!-- egfr -->
<g id="node3" class="node"><title>egfr</title>
<ellipse fill="white" stroke="black" stroke-width="2" cx="952.429" cy="-2822" rx="72" ry="36"/>
<text text-anchor="middle" x="952.429" y="-2816.2" font-family="Helvetica,sans-Serif" font-size="22.00">egfr</text>
</g>
<!-- grb2 -->
<g id="node23" class="node"><title>grb2</title>
<ellipse fill="white" stroke="black" stroke-width="2" cx="1000.43" cy="-2314" rx="72" ry="36"/>
<text text-anchor="middle" x="1000.43" y="-2308.2" font-family="Helvetica,sans-Serif" font-size="22.00">grb2</text>
</g>
<!-- egfr&#45;&gt;grb2 -->
<g id="edge95" class="edge"><title>egfr&#45;&gt;grb2:center</title>
<path fill="none" stroke="black" stroke-width="3" d="M890.525,-2803.33C822.1,-2778.4 721.429,-2727.1 721.429,-2641 721.429,-2641 721.429,-2641 721.429,-2460 721.429,-2373.48 828.068,-2338.13 909.489,-2323.76"/>
<polygon fill="black" stroke="black" points="910.667,-2330.66 929.303,-2320.57 908.446,-2316.84 910.667,-2330.66"/>
</g>
<!-- egfr&#45;&gt;shc -->
<g id="edge93" class="edge"><title>egfr&#45;&gt;shc:center</title>
<path fill="none" stroke="black" stroke-width="3" d="M959.204,-2786.15C967.186,-2743.91 980.541,-2673.24 989.88,-2623.82"/>
<polygon fill="black" stroke="black" points="996.774,-2625.03 993.61,-2604.08 983.018,-2622.43 996.774,-2625.03"/>
</g>
<!-- pi3k -->
<g id="node36" class="node"><title>pi3k</title>
<ellipse fill="orangered" stroke="orangered" stroke-width="2" cx="1423.43" cy="-1762" rx="72" ry="36"/>
<text text-anchor="middle" x="1423.43" y="-1756.2" font-family="Helvetica,sans-Serif" font-size="22.00">pi3k</text>
</g>
<!-- egfr&#45;&gt;pi3k -->
<g id="edge97" class="edge"><title>egfr&#45;&gt;pi3k:center</title>
<path fill="none" stroke="black" stroke-width="3" d="M1022.76,-2814.24C1118.6,-2799.32 1278.43,-2757.04 1278.43,-2641 1278.43,-2641 1278.43,-2641 1278.43,-1873 1278.43,-1834.84 1310.48,-1808.03 1344.45,-1790.32"/>
<polygon fill="black" stroke="black" points="1347.69,-1796.53 1362.78,-1781.65 1341.7,-1783.88 1347.69,-1796.53"/>
</g>
<!-- igf1 -->
<g id="node5" class="node"><title>igf1</title>
<ellipse fill="#9acd32" stroke="#9acd32" cx="1404.43" cy="-3006" rx="72" ry="36"/>
<text text-anchor="middle" x="1404.43" y="-3000.2" font-family="Helvetica,sans-Serif" font-size="22.00">igf1</text>
</g>
<!-- igf1&#45;&gt;igfr -->
<g id="edge45" class="edge"><title>igf1&#45;&gt;igfr:center</title>
<path fill="none" stroke="black" stroke-width="3" d="M1404.43,-2969.65C1404.43,-2943.69 1404.43,-2908.27 1404.43,-2878.62"/>
<polygon fill="black" stroke="black" points="1411.43,-2878.28 1404.43,-2858.28 1397.43,-2878.28 1411.43,-2878.28"/>
</g>
<!-- tgfa -->
<g id="node6" class="node"><title>tgfa</title>
<ellipse fill="#9acd32" stroke="#9acd32" cx="952.429" cy="-3006" rx="72" ry="36"/>
<text text-anchor="middle" x="952.429" y="-3000.2" font-family="Helvetica,sans-Serif" font-size="22.00">tgfa</text>
</g>
<!-- tgfa&#45;&gt;egfr -->
<g id="edge75" class="edge"><title>tgfa&#45;&gt;egfr:center</title>
<path fill="none" stroke="black" stroke-width="3" d="M952.429,-2969.65C952.429,-2943.69 952.429,-2908.27 952.429,-2878.62"/>
<polygon fill="black" stroke="black" points="959.429,-2878.28 952.429,-2858.28 945.429,-2878.28 959.429,-2878.28"/>
</g>
<!-- il1a -->
<g id="node7" class="node"><title>il1a</title>
<ellipse fill="#9acd32" stroke="#9acd32" cx="2309.43" cy="-3006" rx="72" ry="36"/>
<text text-anchor="middle" x="2309.43" y="-3000.2" font-family="Helvetica,sans-Serif" font-size="22.00">il1a</text>
</g>
<!-- il1r -->
<g id="node30" class="node"><title>il1r</title>
<ellipse fill="white" stroke="black" stroke-width="2" cx="2309.43" cy="-2714" rx="72" ry="36"/>
<text text-anchor="middle" x="2309.43" y="-2708.2" font-family="Helvetica,sans-Serif" font-size="22.00">il1r</text>
</g>
<!-- il1a&#45;&gt;il1r -->
<g id="edge103" class="edge"><title>il1a&#45;&gt;il1r:center</title>
<path fill="none" stroke="black" stroke-width="3" d="M2309.43,-2969.9C2309.43,-2919.89 2309.43,-2829.05 2309.43,-2770.14"/>
<polygon fill="black" stroke="black" points="2316.43,-2770.02 2309.43,-2750.02 2302.43,-2770.02 2316.43,-2770.02"/>
</g>
<!-- tnfa -->
<g id="node8" class="node"><title>tnfa</title>
<ellipse fill="#9acd32" stroke="#9acd32" cx="1855.43" cy="-3006" rx="72" ry="36"/>
<text text-anchor="middle" x="1855.43" y="-3000.2" font-family="Helvetica,sans-Serif" font-size="22.00">tnfa</text>
</g>
<!-- tnfr -->
<g id="node38" class="node"><title>tnfr</title>
<ellipse fill="white" stroke="black" stroke-width="2" cx="1766.43" cy="-1946" rx="72" ry="36"/>
<text text-anchor="middle" x="1766.43" y="-1940.2" font-family="Helvetica,sans-Serif" font-size="22.00">tnfr</text>
</g>
<!-- tnfa&#45;&gt;tnfr -->
<g id="edge115" class="edge"><title>tnfa&#45;&gt;tnfr:center</title>
<path fill="none" stroke="black" stroke-width="3" d="M1855.43,-2969.76C1855.43,-2948.07 1855.43,-2919.96 1855.43,-2895 1855.43,-2895 1855.43,-2895 1855.43,-2057 1855.43,-2031.21 1840.62,-2007.99 1823.08,-1989.53"/>
<polygon fill="black" stroke="black" points="1827.64,-1984.21 1808.32,-1975.5 1817.99,-1994.35 1827.64,-1984.21"/>
</g>
<!-- hsp27 -->
<g id="node10" class="node"><title>hsp27</title>
<ellipse fill="lightblue" stroke="lightblue" stroke-width="2" cx="1872.43" cy="-36" rx="72" ry="36"/>
<text text-anchor="middle" x="1872.43" y="-30.2" font-family="Helvetica,sans-Serif" font-size="22.00">hsp27</text>
</g>
<!-- jnk12 -->
<g id="node11" class="node"><title>jnk12</title>
<ellipse fill="lightblue" stroke="lightblue" stroke-width="2" cx="2674.43" cy="-36" rx="72" ry="36"/>
<text text-anchor="middle" x="2674.43" y="-30.2" font-family="Helvetica,sans-Serif" font-size="22.00">jnk12</text>
</g>
<!-- ikb -->
<g id="node12" class="node"><title>ikb</title>
<ellipse fill="lightblue" stroke="lightblue" stroke-width="2" cx="930.429" cy="-36" rx="72" ry="36"/>
<text text-anchor="middle" x="930.429" y="-30.2" font-family="Helvetica,sans-Serif" font-size="22.00">ikb</text>
</g>
<!-- prak -->
<g id="node13" class="node"><title>prak</title>
<ellipse fill="white" stroke="black" stroke-width="2" cx="1872.43" cy="-220" rx="72" ry="36"/>
<text text-anchor="middle" x="1872.43" y="-214.2" font-family="Helvetica,sans-Serif" font-size="22.00">prak</text>
</g>
<!-- prak&#45;&gt;hsp27 -->
<g id="edge5" class="edge"><title>prak&#45;&gt;hsp27:center</title>
<path fill="none" stroke="black" stroke-width="3" d="M1872.43,-183.648C1872.43,-157.69 1872.43,-122.266 1872.43,-92.6223"/>
<polygon fill="black" stroke="black" points="1879.43,-92.2769 1872.43,-72.277 1865.43,-92.277 1879.43,-92.2769"/>
</g>
<!-- map3k7 -->
<g id="node14" class="node"><title>map3k7</title>
<ellipse fill="white" stroke="black" stroke-width="2" cx="1707.43" cy="-1026" rx="72" ry="36"/>
<text text-anchor="middle" x="1707.43" y="-1020.2" font-family="Helvetica,sans-Serif" font-size="22.00">map3k7</text>
</g>
<!-- nik -->
<g id="node21" class="node"><title>nik</title>
<ellipse fill="white" stroke="black" stroke-width="2" cx="930.429" cy="-772" rx="72" ry="36"/>
<text text-anchor="middle" x="930.429" y="-766.2" font-family="Helvetica,sans-Serif" font-size="22.00">nik</text>
</g>
<!-- map3k7&#45;&gt;nik -->
<g id="edge9" class="edge"><title>map3k7&#45;&gt;nik:center</title>
<path fill="none" stroke="black" stroke-width="3" d="M1647.11,-1006.28C1508.25,-960.889 1166.01,-849.011 1010.11,-798.047"/>
<polygon fill="black" stroke="black" points="1011.9,-791.268 990.713,-791.707 1007.55,-804.575 1011.9,-791.268"/>
</g>
<!-- mkk4 -->
<g id="node24" class="node"><title>mkk4</title>
<ellipse fill="white" stroke="black" stroke-width="2" cx="2390.43" cy="-772" rx="72" ry="36"/>
<text text-anchor="middle" x="2390.43" y="-766.2" font-family="Helvetica,sans-Serif" font-size="22.00">mkk4</text>
</g>
<!-- map3k7&#45;&gt;mkk4 -->
<g id="edge15" class="edge"><title>map3k7&#45;&gt;mkk4:center</title>
<path fill="none" stroke="black" stroke-width="3" d="M1765.37,-1004.45C1888.29,-958.739 2175.25,-852.021 2313.41,-800.643"/>
<polygon fill="black" stroke="black" points="2315.97,-807.157 2332.28,-793.625 2311.09,-794.035 2315.97,-807.157"/>
</g>
<!-- mkk7 -->
<g id="node25" class="node"><title>mkk7</title>
<ellipse fill="white" stroke="black" stroke-width="2" cx="2841.43" cy="-772" rx="72" ry="36"/>
<text text-anchor="middle" x="2841.43" y="-766.2" font-family="Helvetica,sans-Serif" font-size="22.00">mkk7</text>
</g>
<!-- map3k7&#45;&gt;mkk7 -->
<g id="edge7" class="edge"><title>map3k7&#45;&gt;mkk7:center</title>
<path fill="none" stroke="black" stroke-width="3" d="M1773.3,-1011.25C1967.56,-967.734 2538.11,-839.938 2755.74,-791.192"/>
<polygon fill="black" stroke="black" points="2757.39,-797.997 2775.38,-786.795 2754.33,-784.335 2757.39,-797.997"/>
</g>
<!-- mkk6 -->
<g id="node33" class="node"><title>mkk6</title>
<ellipse fill="white" stroke="black" stroke-width="2" cx="1381.43" cy="-772" rx="72" ry="36"/>
<text text-anchor="middle" x="1381.43" y="-766.2" font-family="Helvetica,sans-Serif" font-size="22.00">mkk6</text>
</g>
<!-- map3k7&#45;&gt;mkk6 -->
<g id="edge13" class="edge"><title>map3k7&#45;&gt;mkk6:center</title>
<path fill="none" stroke="black" stroke-width="3" d="M1668.43,-995.614C1610.75,-950.673 1502.44,-866.287 1436.63,-815.011"/>
<polygon fill="black" stroke="black" points="1440.55,-809.191 1420.47,-802.421 1431.95,-820.235 1440.55,-809.191"/>
</g>
<!-- mkk3 -->
<g id="node40" class="node"><title>mkk3</title>
<ellipse fill="white" stroke="black" stroke-width="2" cx="1938.43" cy="-772" rx="72" ry="36"/>
<text text-anchor="middle" x="1938.43" y="-766.2" font-family="Helvetica,sans-Serif" font-size="22.00">mkk3</text>
</g>
<!-- map3k7&#45;&gt;mkk3 -->
<g id="edge11" class="edge"><title>map3k7&#45;&gt;mkk3:center</title>
<path fill="none" stroke="black" stroke-width="3" d="M1737.39,-993.054C1777.46,-948.992 1848.79,-870.565 1894.82,-819.949"/>
<polygon fill="black" stroke="black" points="1900.24,-824.393 1908.52,-804.887 1889.88,-814.974 1900.24,-824.393"/>
</g>
<!-- pip3 -->
<g id="node15" class="node"><title>pip3</title>
<ellipse fill="white" stroke="black" stroke-width="2" cx="1314.43" cy="-1578" rx="72" ry="36"/>
<text text-anchor="middle" x="1314.43" y="-1572.2" font-family="Helvetica,sans-Serif" font-size="22.00">pip3</text>
</g>
<!-- pdk1 -->
<g id="node42" class="node"><title>pdk1</title>
<ellipse fill="white" stroke="black" stroke-width="2" cx="1314.43" cy="-1394" rx="72" ry="36"/>
<text text-anchor="middle" x="1314.43" y="-1388.2" font-family="Helvetica,sans-Serif" font-size="22.00">pdk1</text>
</g>
<!-- pip3&#45;&gt;pdk1 -->
<g id="edge17" class="edge"><title>pip3&#45;&gt;pdk1:center</title>
<path fill="none" stroke="black" stroke-width="3" d="M1314.43,-1541.65C1314.43,-1515.69 1314.43,-1480.27 1314.43,-1450.62"/>
<polygon fill="black" stroke="black" points="1321.43,-1450.28 1314.43,-1430.28 1307.43,-1450.28 1321.43,-1450.28"/>
</g>
<!-- pak -->
<g id="node16" class="node"><title>pak</title>
<ellipse fill="white" stroke="black" stroke-width="2" cx="863.429" cy="-1026" rx="72" ry="36"/>
<text text-anchor="middle" x="863.429" y="-1020.2" font-family="Helvetica,sans-Serif" font-size="22.00">pak</text>
</g>
<!-- raf1 -->
<g id="node18" class="node"><title>raf1</title>
<ellipse fill="white" stroke="black" stroke-width="2" cx="479.429" cy="-772" rx="72" ry="36"/>
<text text-anchor="middle" x="479.429" y="-766.2" font-family="Helvetica,sans-Serif" font-size="22.00">raf1</text>
</g>
<!-- pak&#45;&gt;raf1 -->
<g id="edge19" class="edge"><title>pak&#45;&gt;raf1:center</title>
<path fill="none" stroke="black" stroke-width="3" d="M821.915,-996.173C770.373,-959.424 679.47,-895.53 599.429,-844 581.656,-832.558 562.104,-820.578 544.035,-809.746"/>
<polygon fill="black" stroke="black" points="547.347,-803.572 526.58,-799.36 540.188,-815.603 547.347,-803.572"/>
</g>
<!-- rac -->
<g id="node17" class="node"><title>rac</title>
<ellipse fill="white" stroke="black" stroke-width="2" cx="1314.43" cy="-1210" rx="72" ry="36"/>
<text text-anchor="middle" x="1314.43" y="-1204.2" font-family="Helvetica,sans-Serif" font-size="22.00">rac</text>
</g>
<!-- rac&#45;&gt;pak -->
<g id="edge23" class="edge"><title>rac&#45;&gt;pak:center</title>
<path fill="none" stroke="black" stroke-width="3" d="M1258.22,-1187.07C1177.29,-1154.05 1027.8,-1093.06 937.807,-1056.35"/>
<polygon fill="black" stroke="black" points="940.443,-1049.86 919.281,-1048.79 935.154,-1062.82 940.443,-1049.86"/>
</g>
<!-- map3k1 -->
<g id="node22" class="node"><title>map3k1</title>
<ellipse fill="white" stroke="black" stroke-width="2" cx="2159.43" cy="-1026" rx="72" ry="36"/>
<text text-anchor="middle" x="2159.43" y="-1020.2" font-family="Helvetica,sans-Serif" font-size="22.00">map3k1</text>
</g>
<!-- rac&#45;&gt;map3k1 -->
<g id="edge21" class="edge"><title>rac&#45;&gt;map3k1:center</title>
<path fill="none" stroke="black" stroke-width="3" d="M1380.73,-1195.56C1532.43,-1162.53 1904.67,-1081.47 2073.58,-1044.69"/>
<polygon fill="black" stroke="black" points="2075.09,-1051.53 2093.14,-1040.43 2072.11,-1037.85 2075.09,-1051.53"/>
</g>
<!-- mek12 -->
<g id="node19" class="node"><title>mek12</title>
<ellipse fill="#7ec0ee" stroke="orangered" stroke-width="2" cx="286.429" cy="-588" rx="72" ry="36"/>
<polyline fill="none" stroke="orangered" stroke-width="2" points="334.049,-615 238.808,-615 "/>
<polyline fill="none" stroke="orangered" stroke-width="2" points="334.049,-561 238.808,-561 "/>
<text text-anchor="middle" x="286.429" y="-582.2" font-family="Helvetica,sans-Serif" font-size="22.00">mek12</text>
</g>
<!-- raf1&#45;&gt;mek12 -->
<g id="edge25" class="edge"><title>raf1&#45;&gt;mek12:center</title>
<path fill="none" stroke="black" stroke-width="3" d="M445.811,-739.95C415.047,-710.621 369.182,-666.895 334.541,-633.869"/>
<polygon fill="black" stroke="black" points="339.29,-628.725 319.985,-619.991 329.63,-638.858 339.29,-628.725"/>
</g>
<!-- erk12 -->
<g id="node41" class="node"><title>erk12</title>
<ellipse fill="lightblue" stroke="lightblue" stroke-width="2" cx="559.429" cy="-404" rx="72" ry="36"/>
<text text-anchor="middle" x="559.429" y="-398.2" font-family="Helvetica,sans-Serif" font-size="22.00">erk12</text>
</g>
<!-- mek12&#45;&gt;erk12 -->
<g id="edge27" class="edge"><title>mek12&#45;&gt;erk12:center</title>
<path fill="none" stroke="black" stroke-width="3" d="M329.385,-559.048C375.154,-528.2 447.958,-479.131 499.386,-444.468"/>
<polygon fill="black" stroke="black" points="503.6,-450.07 516.272,-433.087 495.775,-438.46 503.6,-450.07"/>
</g>
<!-- irs1&#45;&gt;pi3k -->
<g id="edge29" class="edge"><title>irs1&#45;&gt;pi3k:center</title>
<path fill="none" stroke="black" stroke-width="3" d="M1522.65,-2428.2C1496.59,-2400.78 1465.43,-2358.64 1465.43,-2314 1465.43,-2314 1465.43,-2314 1465.43,-1873 1465.43,-1853.33 1459.59,-1832.89 1452.26,-1815"/>
<polygon fill="black" stroke="black" points="1458.6,-1812.03 1443.94,-1796.73 1445.86,-1817.84 1458.6,-1812.03"/>
</g>
<!-- ikk -->
<g id="node27" class="node"><title>ikk</title>
<ellipse fill="orangered" stroke="orangered" stroke-width="2" cx="930.429" cy="-588" rx="72" ry="36"/>
<text text-anchor="middle" x="930.429" y="-582.2" font-family="Helvetica,sans-Serif" font-size="22.00">ikk</text>
</g>
<!-- nik&#45;&gt;ikk -->
<g id="edge31" class="edge"><title>nik&#45;&gt;ikk:center</title>
<path fill="none" stroke="black" stroke-width="3" d="M930.429,-735.648C930.429,-709.69 930.429,-674.266 930.429,-644.622"/>
<polygon fill="black" stroke="black" points="937.429,-644.277 930.429,-624.277 923.429,-644.277 937.429,-644.277"/>
</g>
<!-- map3k1&#45;&gt;mkk4 -->
<g id="edge37" class="edge"><title>map3k1&#45;&gt;mkk4:center</title>
<path fill="none" stroke="black" stroke-width="3" d="M2189.39,-993.054C2229.46,-948.992 2300.79,-870.565 2346.82,-819.949"/>
<polygon fill="black" stroke="black" points="2352.24,-824.393 2360.52,-804.887 2341.88,-814.974 2352.24,-824.393"/>
</g>
<!-- map3k1&#45;&gt;mkk7 -->
<g id="edge33" class="edge"><title>map3k1&#45;&gt;mkk7:center</title>
<path fill="none" stroke="black" stroke-width="3" d="M2217.28,-1004.45C2340.03,-958.739 2626.57,-852.021 2764.52,-800.643"/>
<polygon fill="black" stroke="black" points="2767.07,-807.165 2783.36,-793.625 2762.18,-794.046 2767.07,-807.165"/>
</g>
<!-- map3k1&#45;&gt;ikk -->
<g id="edge35" class="edge"><title>map3k1&#45;&gt;ikk:center</title>
<path fill="none" stroke="black" stroke-width="3" d="M2090.31,-1015.76C1953.31,-993.507 1660.43,-935.369 1660.43,-845 1660.43,-845 1660.43,-845 1660.43,-699 1660.43,-635.192 1218.87,-603.495 1022.59,-592.557"/>
<polygon fill="black" stroke="black" points="1022.77,-585.556 1002.42,-591.458 1022.01,-599.536 1022.77,-585.556"/>
</g>
<!-- sos -->
<g id="node26" class="node"><title>sos</title>
<ellipse fill="white" stroke="black" stroke-width="2" cx="1000.43" cy="-2130" rx="72" ry="36"/>
<text text-anchor="middle" x="1000.43" y="-2124.2" font-family="Helvetica,sans-Serif" font-size="22.00">sos</text>
</g>
<!-- grb2&#45;&gt;sos -->
<g id="edge39" class="edge"><title>grb2&#45;&gt;sos:center</title>
<path fill="none" stroke="black" stroke-width="3" d="M1000.43,-2277.65C1000.43,-2251.69 1000.43,-2216.27 1000.43,-2186.62"/>
<polygon fill="black" stroke="black" points="1007.43,-2186.28 1000.43,-2166.28 993.429,-2186.28 1007.43,-2186.28"/>
</g>
<!-- mkk4&#45;&gt;jnk12 -->
<g id="edge43" class="edge"><title>mkk4&#45;&gt;jnk12:center</title>
<path fill="none" stroke="black" stroke-width="3" d="M2459.2,-761.033C2514.3,-747.868 2582.43,-719.717 2582.43,-661 2582.43,-661 2582.43,-661 2582.43,-147 2582.43,-120.634 2598.01,-97.1719 2616.34,-78.6882"/>
<polygon fill="black" stroke="black" points="2621.32,-83.6172 2631.39,-64.9716 2611.89,-73.2698 2621.32,-83.6172"/>
</g>
<!-- p38 -->
<g id="node31" class="node"><title>p38</title>
<ellipse fill="#7ec0ee" stroke="orangered" stroke-width="2" cx="2150.43" cy="-588" rx="72" ry="36"/>
<polyline fill="none" stroke="orangered" stroke-width="2" points="2198.05,-615 2102.81,-615 "/>
<polyline fill="none" stroke="orangered" stroke-width="2" points="2198.05,-561 2102.81,-561 "/>
<text text-anchor="middle" x="2150.43" y="-582.2" font-family="Helvetica,sans-Serif" font-size="22.00">p38</text>
</g>
<!-- mkk4&#45;&gt;p38 -->
<g id="edge41" class="edge"><title>mkk4&#45;&gt;p38:center</title>
<path fill="none" stroke="black" stroke-width="3" d="M2351.07,-741.822C2311.56,-711.537 2250.36,-664.616 2205.94,-630.557"/>
<polygon fill="black" stroke="black" points="2209.94,-624.808 2189.81,-618.194 2201.43,-635.918 2209.94,-624.808"/>
</g>
<!-- mkk7&#45;&gt;jnk12 -->
<g id="edge47" class="edge"><title>mkk7&#45;&gt;jnk12:center</title>
<path fill="none" stroke="black" stroke-width="3" d="M2804.26,-740.984C2784.17,-720.63 2763.43,-692.09 2763.43,-661 2763.43,-661 2763.43,-661 2763.43,-147 2763.43,-121.206 2748.62,-97.9863 2731.08,-79.532"/>
<polygon fill="black" stroke="black" points="2735.64,-74.2059 2716.32,-65.4983 2725.99,-84.3521 2735.64,-74.2059"/>
</g>
<!-- ras -->
<g id="node37" class="node"><title>ras</title>
<ellipse fill="white" stroke="black" stroke-width="2" cx="1000.43" cy="-1946" rx="72" ry="36"/>
<text text-anchor="middle" x="1000.43" y="-1940.2" font-family="Helvetica,sans-Serif" font-size="22.00">ras</text>
</g>
<!-- sos&#45;&gt;ras -->
<g id="edge53" class="edge"><title>sos&#45;&gt;ras:center</title>
<path fill="none" stroke="black" stroke-width="3" d="M1000.43,-2093.65C1000.43,-2067.69 1000.43,-2032.27 1000.43,-2002.62"/>
<polygon fill="black" stroke="black" points="1007.43,-2002.28 1000.43,-1982.28 993.429,-2002.28 1007.43,-2002.28"/>
</g>
<!-- ikk&#45;&gt;ikb -->
<g id="edge55" class="edge"><title>ikk&#45;&gt;ikb:center</title>
<path fill="none" stroke="black" stroke-width="3" d="M930.429,-551.756C930.429,-530.067 930.429,-501.956 930.429,-477 930.429,-477 930.429,-477 930.429,-147 930.429,-129.258 930.429,-109.921 930.429,-92.4307"/>
<polygon fill="black" stroke="black" points="937.429,-92.2437 930.429,-72.2438 923.429,-92.2438 937.429,-92.2437"/>
</g>
<!-- akt -->
<g id="node28" class="node"><title>akt</title>
<ellipse fill="lightblue" stroke="lightblue" stroke-width="2" cx="757.429" cy="-1210" rx="72" ry="36"/>
<text text-anchor="middle" x="757.429" y="-1204.2" font-family="Helvetica,sans-Serif" font-size="22.00">akt</text>
</g>
<!-- akt&#45;&gt;pak -->
<g id="edge61" class="edge"><title>akt&#45;&gt;pak:center</title>
<path fill="none" stroke="red" stroke-width="3" d="M777.366,-1175.39C794.634,-1145.42 819.698,-1101.91 838.328,-1069.57"/>
<polygon fill="red" stroke="red" points="833.737,-1057.51 851.067,-1067.49 849.07,-1070.96 831.74,-1060.97 833.737,-1057.51"/>
<polyline fill="none" stroke="red" points="843.4,-1060.77 838.408,-1069.43 "/>
</g>
<!-- akt&#45;&gt;raf1 -->
<g id="edge57" class="edge"><title>akt&#45;&gt;raf1:center</title>
<path fill="none" stroke="red" stroke-width="3" d="M691.421,-1195.49C642.916,-1180.48 585.429,-1151.6 585.429,-1099 585.429,-1099 585.429,-1099 585.429,-918 585.429,-874.869 554.762,-835.898 526.418,-809.089"/>
<polygon fill="red" stroke="red" points="513.618,-810.923 527.129,-796.177 530.079,-798.879 516.567,-813.625 513.618,-810.923"/>
<polyline fill="none" stroke="red" points="518.899,-802.199 526.272,-808.954 "/>
</g>
<!-- cot -->
<g id="node39" class="node"><title>cot</title>
<ellipse fill="white" stroke="black" stroke-width="2" cx="200.429" cy="-918" rx="72" ry="36"/>
<text text-anchor="middle" x="200.429" y="-912.2" font-family="Helvetica,sans-Serif" font-size="22.00">cot</text>
</g>
<!-- akt&#45;&gt;cot -->
<g id="edge59" class="edge"><title>akt&#45;&gt;cot:center</title>
<path fill="none" stroke="black" stroke-width="3" d="M697.723,-1189.75C660.707,-1176.49 612.54,-1157.98 571.429,-1138 457.802,-1082.79 332.818,-1004.81 260.791,-958.04"/>
<polygon fill="black" stroke="black" points="264.233,-951.927 243.659,-946.856 256.579,-963.65 264.233,-951.927"/>
</g>
<!-- traf6 -->
<g id="node29" class="node"><title>traf6</title>
<ellipse fill="white" stroke="black" stroke-width="2" cx="2309.43" cy="-1394" rx="72" ry="36"/>
<text text-anchor="middle" x="2309.43" y="-1388.2" font-family="Helvetica,sans-Serif" font-size="22.00">traf6</text>
</g>
<!-- traf6&#45;&gt;map3k7 -->
<g id="edge65" class="edge"><title>traf6&#45;&gt;map3k7:center</title>
<path fill="none" stroke="black" stroke-width="3" d="M2242.9,-1379.93C2164.4,-1361.36 2044.43,-1325.96 2044.43,-1283 2044.43,-1283 2044.43,-1283 2044.43,-1210 2044.43,-1097.43 1897.79,-1053.31 1797.98,-1036.32"/>
<polygon fill="black" stroke="black" points="1798.92,-1029.38 1778.07,-1033.18 1796.74,-1043.21 1798.92,-1029.38"/>
</g>
<!-- sitpec -->
<g id="node35" class="node"><title>sitpec</title>
<ellipse fill="white" stroke="black" stroke-width="2" cx="2323.43" cy="-1210" rx="72" ry="36"/>
<text text-anchor="middle" x="2323.43" y="-1204.2" font-family="Helvetica,sans-Serif" font-size="22.00">sitpec</text>
</g>
<!-- traf6&#45;&gt;sitpec -->
<g id="edge63" class="edge"><title>traf6&#45;&gt;sitpec:center</title>
<path fill="none" stroke="black" stroke-width="3" d="M2312.19,-1357.65C2314.17,-1331.69 2316.86,-1296.27 2319.12,-1266.62"/>
<polygon fill="black" stroke="black" points="2326.13,-1266.75 2320.67,-1246.28 2312.17,-1265.69 2326.13,-1266.75"/>
</g>
<!-- il1r&#45;&gt;traf6 -->
<g id="edge67" class="edge"><title>il1r&#45;&gt;traf6:center</title>
<path fill="none" stroke="black" stroke-width="3" d="M2309.43,-2677.7C2309.43,-2648.16 2309.43,-2605.39 2309.43,-2568 2309.43,-2568 2309.43,-2568 2309.43,-1505 2309.43,-1487.26 2309.43,-1467.92 2309.43,-1450.43"/>
<polygon fill="black" stroke="black" points="2316.43,-1450.24 2309.43,-1430.24 2302.43,-1450.24 2316.43,-1450.24"/>
</g>
<!-- p38&#45;&gt;prak -->
<g id="edge69" class="edge"><title>p38&#45;&gt;prak:center</title>
<path fill="none" stroke="black" stroke-width="3" d="M2109.95,-558.205C2087.64,-538.117 2064.43,-509.423 2064.43,-477 2064.43,-477 2064.43,-477 2064.43,-331 2064.43,-279.049 2011.09,-251.026 1960.64,-236.139"/>
<polygon fill="black" stroke="black" points="1962.33,-229.344 1941.2,-230.967 1958.73,-242.874 1962.33,-229.344"/>
</g>
<!-- shc&#45;&gt;grb2 -->
<g id="edge71" class="edge"><title>shc&#45;&gt;grb2:center</title>
<path fill="none" stroke="black" stroke-width="3" d="M1000.43,-2531.88C1000.43,-2489.79 1000.43,-2419.73 1000.43,-2370.44"/>
<polygon fill="black" stroke="black" points="1007.43,-2370.41 1000.43,-2350.41 993.429,-2370.41 1007.43,-2370.41"/>
</g>
<!-- mkk6&#45;&gt;p38 -->
<g id="edge73" class="edge"><title>mkk6&#45;&gt;p38:center</title>
<path fill="none" stroke="black" stroke-width="3" d="M1446.66,-756.392C1585.58,-723.153 1910.55,-645.396 2065.43,-608.338"/>
<polygon fill="black" stroke="black" points="2067.41,-615.062 2085.23,-603.6 2064.15,-601.447 2067.41,-615.062"/>
</g>
<!-- traf2 -->
<g id="node34" class="node"><title>traf2</title>
<ellipse fill="white" stroke="black" stroke-width="2" cx="1766.43" cy="-1210" rx="72" ry="36"/>
<text text-anchor="middle" x="1766.43" y="-1204.2" font-family="Helvetica,sans-Serif" font-size="22.00">traf2</text>
</g>
<!-- traf2&#45;&gt;map3k7 -->
<g id="edge79" class="edge"><title>traf2&#45;&gt;map3k7:center</title>
<path fill="none" stroke="black" stroke-width="3" d="M1754.91,-1174.09C1746.43,-1147.62 1734.73,-1111.13 1725.06,-1081"/>
<polygon fill="black" stroke="black" points="1731.69,-1078.73 1718.92,-1061.82 1718.36,-1083.01 1731.69,-1078.73"/>
</g>
<!-- ask1 -->
<g id="node43" class="node"><title>ask1</title>
<ellipse fill="white" stroke="black" stroke-width="2" cx="2610.43" cy="-1026" rx="72" ry="36"/>
<text text-anchor="middle" x="2610.43" y="-1020.2" font-family="Helvetica,sans-Serif" font-size="22.00">ask1</text>
</g>
<!-- traf2&#45;&gt;ask1 -->
<g id="edge77" class="edge"><title>traf2&#45;&gt;ask1:center</title>
<path fill="none" stroke="black" stroke-width="3" d="M1832.66,-1195.56C1984.1,-1162.55 2355.59,-1081.56 2524.42,-1044.75"/>
<polygon fill="black" stroke="black" points="2526.17,-1051.53 2544.22,-1040.43 2523.19,-1037.86 2526.17,-1051.53"/>
</g>
<!-- sitpec&#45;&gt;map3k1 -->
<g id="edge81" class="edge"><title>sitpec&#45;&gt;map3k1:center</title>
<path fill="none" stroke="black" stroke-width="3" d="M2294.11,-1177.1C2268.53,-1148.41 2231.1,-1106.42 2202.19,-1073.98"/>
<polygon fill="black" stroke="black" points="2207.3,-1069.19 2188.77,-1058.92 2196.85,-1078.51 2207.3,-1069.19"/>
</g>
<!-- pi3k&#45;&gt;pip3 -->
<g id="edge85" class="edge"><title>pi3k&#45;&gt;pip3:center</title>
<path fill="none" stroke="black" stroke-width="3" d="M1402.93,-1727.39C1386.69,-1699.98 1363.74,-1661.25 1345.29,-1630.09"/>
<polygon fill="black" stroke="black" points="1351.24,-1626.41 1335.02,-1612.77 1339.19,-1633.54 1351.24,-1626.41"/>
</g>
<!-- pi3k&#45;&gt;rac -->
<g id="edge83" class="edge"><title>pi3k&#45;&gt;rac:center</title>
<path fill="none" stroke="black" stroke-width="3" d="M1489.16,-1747.1C1536.99,-1731.92 1593.43,-1702.99 1593.43,-1651 1593.43,-1651 1593.43,-1651 1593.43,-1321 1593.43,-1279.1 1483.43,-1246.06 1401.56,-1227.26"/>
<polygon fill="black" stroke="black" points="1403.01,-1220.41 1381.97,-1222.91 1399.97,-1234.08 1403.01,-1220.41"/>
</g>
<!-- ras&#45;&gt;raf1 -->
<g id="edge89" class="edge"><title>ras&#45;&gt;raf1:center</title>
<path fill="none" stroke="black" stroke-width="3" d="M929.893,-1938.26C787.562,-1921.67 479.429,-1880.52 479.429,-1835 479.429,-1835 479.429,-1835 479.429,-918 479.429,-888.499 479.429,-855.645 479.429,-828.585"/>
<polygon fill="black" stroke="black" points="486.429,-828.3 479.429,-808.3 472.429,-828.3 486.429,-828.3"/>
</g>
<!-- ras&#45;&gt;map3k1 -->
<g id="edge91" class="edge"><title>ras&#45;&gt;map3k1:center</title>
<path fill="none" stroke="black" stroke-width="3" d="M1018.01,-1910.94C1027.15,-1889.55 1036.43,-1861.34 1036.43,-1835 1036.43,-1835 1036.43,-1835 1036.43,-1210 1036.43,-1157.83 1801.22,-1066.46 2068.53,-1036.11"/>
<polygon fill="black" stroke="black" points="2069.67,-1043.03 2088.75,-1033.83 2068.09,-1029.12 2069.67,-1043.03"/>
</g>
<!-- ras&#45;&gt;pi3k -->
<g id="edge87" class="edge"><title>ras&#45;&gt;pi3k:center</title>
<path fill="none" stroke="black" stroke-width="3" d="M1054.86,-1922.32C1130.19,-1889.56 1266.41,-1830.3 1350.48,-1793.73"/>
<polygon fill="black" stroke="black" points="1353.32,-1800.13 1368.87,-1785.73 1347.74,-1787.29 1353.32,-1800.13"/>
</g>
<!-- tnfr&#45;&gt;traf2 -->
<g id="edge99" class="edge"><title>tnfr&#45;&gt;traf2:center</title>
<path fill="none" stroke="black" stroke-width="3" d="M1766.43,-1909.76C1766.43,-1888.07 1766.43,-1859.96 1766.43,-1835 1766.43,-1835 1766.43,-1835 1766.43,-1321 1766.43,-1303.26 1766.43,-1283.92 1766.43,-1266.43"/>
<polygon fill="black" stroke="black" points="1773.43,-1266.24 1766.43,-1246.24 1759.43,-1266.24 1773.43,-1266.24"/>
</g>
<!-- tnfr&#45;&gt;pi3k -->
<g id="edge101" class="edge"><title>tnfr&#45;&gt;pi3k:center</title>
<path fill="none" stroke="black" stroke-width="3" d="M1717.29,-1919.64C1657.77,-1887.71 1557.23,-1833.78 1490.59,-1798.03"/>
<polygon fill="black" stroke="black" points="1493.69,-1791.75 1472.76,-1788.46 1487.07,-1804.09 1493.69,-1791.75"/>
</g>
<!-- cot&#45;&gt;ikk -->
<g id="edge105" class="edge"><title>cot&#45;&gt;ikk:center</title>
<path fill="none" stroke="black" stroke-width="3" d="M200.429,-881.7C200.429,-852.16 200.429,-809.387 200.429,-772 200.429,-772 200.429,-772 200.429,-699 200.429,-635.192 641.983,-603.495 838.269,-592.557"/>
<polygon fill="black" stroke="black" points="838.846,-599.536 858.436,-591.458 838.084,-585.556 838.846,-599.536"/>
</g>
<!-- mkk3&#45;&gt;prak -->
<g id="edge109" class="edge"><title>mkk3&#45;&gt;prak:center</title>
<path fill="none" stroke="black" stroke-width="3" d="M1906.59,-739.458C1889.71,-718.748 1872.43,-690.37 1872.43,-661 1872.43,-661 1872.43,-661 1872.43,-331 1872.43,-313.258 1872.43,-293.921 1872.43,-276.431"/>
<polygon fill="black" stroke="black" points="1879.43,-276.244 1872.43,-256.244 1865.43,-276.244 1879.43,-276.244"/>
</g>
<!-- mkk3&#45;&gt;p38 -->
<g id="edge107" class="edge"><title>mkk3&#45;&gt;p38:center</title>
<path fill="none" stroke="black" stroke-width="3" d="M1974.39,-740.787C2008.65,-711.049 2060.59,-665.973 2099.18,-632.48"/>
<polygon fill="black" stroke="black" points="2103.77,-637.762 2114.29,-619.366 2094.6,-627.189 2103.77,-637.762"/>
</g>
<!-- erk12&#45;&gt;prak -->
<g id="edge111" class="edge"><title>erk12&#45;&gt;prak:center</title>
<path fill="none" stroke="black" stroke-width="3" d="M629.094,-394.237C850.206,-363.251 1536.08,-267.135 1782.84,-232.555"/>
<polygon fill="black" stroke="black" points="1784.1,-239.447 1802.93,-229.739 1782.15,-225.583 1784.1,-239.447"/>
</g>
<!-- pdk1&#45;&gt;akt -->
<g id="edge113" class="edge"><title>pdk1&#45;&gt;akt:center</title>
<path fill="none" stroke="black" stroke-width="3" d="M1254.29,-1374.13C1153.32,-1340.78 949.715,-1273.52 837.012,-1236.29"/>
<polygon fill="black" stroke="black" points="838.923,-1229.55 817.737,-1229.92 834.532,-1242.84 838.923,-1229.55"/>
</g>
<!-- ask1&#45;&gt;mkk4 -->
<g id="edge117" class="edge"><title>ask1&#45;&gt;mkk4:center</title>
<path fill="none" stroke="black" stroke-width="3" d="M2581.67,-992.794C2543.62,-948.869 2476.28,-871.122 2432.51,-820.588"/>
<polygon fill="black" stroke="black" points="2437.58,-815.749 2419.2,-805.214 2427,-824.915 2437.58,-815.749"/>
</g>
<!-- ask1&#45;&gt;mkk7 -->
<g id="edge119" class="edge"><title>ask1&#45;&gt;mkk7:center</title>
<path fill="none" stroke="black" stroke-width="3" d="M2640.39,-993.054C2680.46,-948.992 2751.79,-870.565 2797.82,-819.949"/>
<polygon fill="black" stroke="black" points="2803.24,-824.393 2811.52,-804.887 2792.88,-814.974 2803.24,-824.393"/>
</g>
</g>
</svg>
