/* XPM */
static char *testdrive_gtk[] = {
/* columns rows colors chars-per-pixel */
"64 64 59 1 ",
"  c #222525",
". c #262A2B",
"X c #2A2D2E",
"o c #312E2A",
"O c #2F312F",
"+ c #32312D",
"@ c #2B2F30",
"# c #2E3233",
"$ c #323536",
"% c #373937",
"& c #3A3936",
"* c #323738",
"= c #363A3B",
"- c #393D3D",
"; c #3E413F",
": c #41423F",
"> c #363E40",
", c #3A3F40",
"< c #3D4242",
"1 c #414545",
"2 c #494741",
"3 c #454846",
"4 c #494A45",
"5 c #424748",
"6 c #454A4A",
"7 c #4A4D4D",
"8 c #4D514E",
"9 c #50524F",
"0 c #464B51",
"q c #4A4E51",
"w c #4E5251",
"e c #525654",
"r c #555856",
"t c #595B56",
"y c #565A59",
"u c #5A5D5B",
"i c #5E615E",
"p c #61625F",
"a c #5E6261",
"s c #626562",
"d c #666966",
"f c #686B67",
"g c #676A69",
"h c #6A6D6A",
"j c #6E716D",
"k c #71736F",
"l c #6E7270",
"z c #737572",
"x c #767975",
"c c #797B76",
"v c #767978",
"b c #7B7E7A",
"n c #7E817D",
"m c #81837E",
"M c #7F8381",
"N c #838582",
"B c #868884",
"V c #888A86",
"C c None",
/* pixels */
"CCCCCCCCCCCCCCCCCCCCCCCCCCCCCCCCCCCCCCCCCCCCCCCCCCCCCCCCCCCCCCCC",
"CCCCCCCCCCCCCCCCCCCCCCCCCCCeeerreeeeeCCCCCCCCCCCCCCCCCCCCCCCCCCC",
"CCCCCCCCCCCCCCCCCCCCCCCrruifhlbBbvxlhsptrCCCCCCCCCCCCCCCCCCCCCCC",
"CCCCCCCCCCCCCCCCCCCCetgxMbNBBBVVVBBNNMbblsteCCCCCCCCCCCCCCCCCCCC",
"CCCCCCCCCCCCCCCCCCeslMMNNVBczhhhhlzxcmBbbmNzueCCCCCCCCCCCCCCCCCC",
"CCCCCCCCCCCCCCCCwujbcbBbfuurew7qwwerryudzNnbvfr9CCCCCCCCCCCCCCCC",
"CCCCCCCCCCCCCC9rsbbmbfiyq15q5<<1<<3q07qetshNmcvgr8CCCCCCCCCCCCCC",
"CCCCCCCCCCCCC8axxbVzae7731,<<-,11<,<<,1577eahmczzueCCCCCCCCCCCCC",
"CCCCCCCCCCCCesvzmkstw63,-1CCCCCCCCCCCC1<=567rszNzza8CCCCCCCCCCCC",
"CCCCCCCCCCCedzvnsr775=<CCCCCCCCCCCCCCCCCC<*<5qtgbjjs8CCCCCCCCCCC",
"CCCCCCCCCCeglbmsw53,<CCCCCCCCCCCCCCCCCCCCCC<,57ygcxzgrCCCCCCCCCC",
"CCCCCCCCCelzbcsw06<CCCCCCCCCCCCCCCCCCCCCCCCCC<3wyszbjgeCCCCCCCCC",
"CCCCCCCCwgzccie733CCCCCCCCCCCCCCCCCCCCCCCCCCCC11qeixxhs7CCCCCCCC",
"CCCCCCC8ulzxuq7<1CCCCCCCCCCCCCCCCCCCCCCCCCCCCCC1<7waxjgy7CCCCCCC",
"CCCCCC8yhlms771CCCCCCCCCCCCCCCCCCCCCCCCCCCCCCCCCC17rscffe7CCCCCC",
"CCCCCCehgnhr3<CCCCCCCCCCCCCCCCCCCCCCCCCCCCCCCCCCCC3wugbffeCCCCCC",
"CCCCC7igzkuw7<CCCCCCCCCCCCCCCCCCCCCCCCCCCCCCCCCCCC1wwuzzfi7CCCCC",
"CCCCCrlfbuee1CCCCCCCCCCCCCCCCCCCCCCCCCCCCCCCCCCCCCC<weunfgwCCCCC",
"CCCC7udzs8w3CCCCCCCCCCCCCCCCCCCCCCCCCCCCCCCCCCCCCCCC17efzsy7CCCC",
"CCCCeghcy3wCCCCCCCCCCCCCCCCCCCCCCCCCCCCCCCCCCCCCCCCCC77rbfswCCCC",
"CCC7ydzh883CCCCCCCCCCCCCCCCCCCCCCCCCCCCCCCCCCCCCCCCCC3wejzau3CCC",
"CCC7ddba7eCCCCCCCCCCCCCCCrrrrrrretrrrrCCCCCCCCCCCCCCCCr8anga7CCC",
"CCCwsgzee7CCCCCCCCCrrrrpdfhjkzzzxzkklhfdptrryCCCCCCCCC78ejgseCCC",
"CC3eujs774CCCCCrtpdfhjhffgdssssssssssdggfhhhggaerCCCCC578ijar3CC",
"CC7uikt81:99e1pgdsauayyyyyeerrrrerrrryyeyyyuaaaggs4994:7eixii6CC",
"CCwiihi993447%strereeeeeeeeyrrq77wrreeyeyeyeeeeyya%3349rttkpu8CC",
"CCwafdiite9e83ueeeeeeerrrw0<OXXOXXXo-0eeeeeeeeeeeu74etttpppfu8CC",
"C5wufpiutitt1wyeeeeeeeew<##*-----,--%@@5eeeeeeeeey92ttttpipfr61C",
"C1wuhaau9477%eeweeeweer<*;;-y------y---$<ewewewewre=7777tpifr7<C",
"C1wujgr7<%$-$weeweeeee5=----i<<----i-----5eweweeeew#-%%18eddr61C",
"C3riji6;. $---;<0wweqw<=----iuu-1yei-----,wewee3<-,#$# .;7djiw1C",
"C6wrjr<=+1CC46;-<5wwwq<=-=--i@X-y-$p----=<wwww7--<73CC1O%;szuw1C",
"C3wrfr514CCCC7,q0<wwww1=----i-=-y%>a&>&>=<ewwq;<q<0CCCC115skr71C",
"C5wygi11CCCCCC----5wwww-====y<=-y,&a>&>&<wqww<<<<<CCCCCC53fgew1C",
"C1wuhh33CCCCCC----1wwwew;%=%<ur-%eww&&&,weqww<;<-<CCCCCC37jhy7<C",
"C<6rfk71CCCCCC=00=<0w0qer0-=#XX*$@O@>,0yeq7qq<;<0-CCCCCC3ezfw5<C",
"C<18ize1CCCCCC*=--<wq7qqwray65<,-<10eaywq7qqw<-==%CCCCCC1rzi6<;C",
"CC17ucp3CCCCCC$==-<77777qqqwyuiapuurw0qq78777<%-=*CCCCCC1izr<<CC",
"CC67rkhq3CCCCC@60*6070q070q066660303000070077<=00#CCCCC15gzr11CC",
"CC<6wfze7CCCCC$=%<77677351115<<<<<:<<<11555770>==*CCCCC18kje5<CC",
"CC;;5aci1CCCC%=3<0066<<<<=*###X.@X@@#$=<<<<<556<3-*CCCC<rxa7<;CC",
"CCC<<rjd1<CCC;=767<<<<<=@X##CCCCCCCC#@..#*=<<<<63=;%CC<1dfu<;CCC",
"CCC<<waz81CC;14-6<<<=#@@CCCCCCCCCCCCCCCC@..*==<1%31;CC3rkd8;<CCC",
"CCC<=<ijd11;17i:=<<*.CCCCCCCCCCCCCCCCCCCCCC.@%-+&t31-18jxi7==CCC",
"CCCC;<wdce849tp4$X@OCCCCCCCCCCCCCCCCCCCCCCCC..X+4tt438ukgw,-CCCC",
"CCCC;*<rhptttue1-##CCCCCCCCCCCCCCCCCCCCCCCCCC@.&17te9effr<#=CCCC",
"CCCCC<<qpfpppt5&+CCCCCCCCCCCCCCCCCCCCCCCCCCCCCC.&19iidda8;,CCCCC",
"CCCCC;<<epffp9:+%CCCCCCCCCCCCCCCCCCCCCCCCCCCCCC$+:9pfgaw<<-CCCCC",
"CCCCCC<=6uhhaw;O-CCCCCCCCCCCCCCCCCCCCCCCCCCCCCCC+:ephji6*;CCCCCC",
"CCCCCC==*6ihdr:&CCCCCCCCCCCCCCCCCCCCCCCCCCCCCCCC&4tpgi<*#*CCCCCC",
"CCCCCCC=O#6ihi4<=CCCCCCCCCCCCCCCCCCCCCCCCCCCCCC=<4phi6*#*CCCCCCC",
"CCCCCCCC*O<qtffw->CCCCCCCCCCCCCCCCCCCCCCCCCCCC==7fhiw<*=CCCCCCCC",
"CCCCCCCCC;*<8ugcp<;CCCCCCCCCCCCCCCCCCCCCCCCCC<1achi6<*=CCCCCCCCC",
"CCCCCCCCCC=*<7igxh8;<CCCCCCCCCCCCCCCCCCCCCC<<rzchu7=#*CCCCCCCCCC",
"CCCCCCCCCCC;##<8ihzi6=;CCCCCCCCCCCCCCCCCC=*1icji91$X*CCCCCCCCCCC",
"CCCCCCCCCCCC*@*<6eijzpw<<,CCCCCCCCCCCC=<1wszjar61=**CCCCCCCCCCCC",
"CCCCCCCCCCCCC*=%-5wigjnnd8<<;<;<<<;<<<wscnkgie5;$<=CCCCCCCCCCCCC",
"CCCCCCCCCCCCCC*=$*<6wiahznnzaiwwruagzxxlgdu85<*#=$CCCCCCCCCCCCCC",
"CCCCCCCCCCCCCCCC#*.#*;<wriagjjjjjjgggiuw75,*O.#*CCCCCCCCCCCCCCCC",
"CCCCCCCCCCCCCCCCCC*=O #*;<<erwwryrrrr8<=*#..**CCCCCCCCCCCCCCCCCC",
"CCCCCCCCCCCCCCCCCCCC**##.##<<<><<;=<<;#X#$*$CCCCCCCCCCCCCCCCCCCC",
"CCCCCCCCCCCCCCCCCCCCCCC***######@@###****CCCCCCCCCCCCCCCCCCCCCCC",
"CCCCCCCCCCCCCCCCCCCCCCCCCCC**#**###*#CCCCCCCCCCCCCCCCCCCCCCCCCCC",
"CCCCCCCCCCCCCCCCCCCCCCCCCCCCCCCCCCCCCCCCCCCCCCCCCCCCCCCCCCCCCCCC"
};
