<?xml version="1.0" encoding="utf-8" ?>
<svg baseProfile="full" height="110.0" version="1.1" width="70.0" xmlns="http://www.w3.org/2000/svg" xmlns:ev="http://www.w3.org/2001/xml-events" xmlns:xlink="http://www.w3.org/1999/xlink"><defs /><g id="four_crosses" transform="translate(5.0,30.0)"><polygon fill="#00FF00" fill-opacity="0.5" points="-1.0,5.0 1.0,5.0 0,0 5.0,1.0 5.0,-1.0 0,0 1.0,-5.0 -1.0,-5.0 0,0 -5.0,-1.0 -5.0,1.0 0,0" /><polygon fill="#00FF00" fill-opacity="0.5" points="59.0,5.0 61.0,5.0 60,0 65.0,1.0 65.0,-1.0 60,0 61.0,-5.0 59.0,-5.0 60,0 55.0,-1.0 55.0,1.0 60,0" /><polygon fill="#00FF00" fill-opacity="0.5" points="-1.0,80.0 1.0,80.0 0,75 5.0,76.0 5.0,74.0 0,75 1.0,70.0 -1.0,70.0 0,75 -5.0,74.0 -5.0,76.0 0,75" /><polygon fill="#00FF00" fill-opacity="0.5" points="59.0,-20.0 61.0,-20.0 60,-25 65.0,-24.0 65.0,-26.0 60,-25 61.0,-30.0 59.0,-30.0 60,-25 55.0,-26.0 55.0,-24.0 60,-25" /></g></svg>