<?xml version="1.0" encoding="utf-8" ?>
<svg baseProfile="full" height="30.0" version="1.1" width="30.0" xmlns="http://www.w3.org/2000/svg" xmlns:ev="http://www.w3.org/2001/xml-events" xmlns:xlink="http://www.w3.org/1999/xlink"><defs /><g id="Layer" transform="translate(15.0,15.0)"><polygon fill="#00FF00" fill-opacity="0.5" points="0,0 -15.0,0 -15.0,14.75 -14.75,15.0 14.75,15.0 15.0,14.75 15.0,0 0.75,0 0.75,5.0 2.5,5.0 2.75,4.75 2.75,1.0 13.0,1.0 13.0,12.75 12.75,13.0 -12.75,13.0 -13.0,12.75 -13.0,1.0 -2.75,1.0 -2.75,4.75 -2.5,5.0 -0.75,5.0 -0.75,0 -15.0,0 -15.0,-14.75 -14.75,-15.0 14.75,-15.0 15.0,-14.75 15.0,0 0.75,0 0.75,-5.0 2.5,-5.0 2.75,-4.75 2.75,-1.0 13.0,-1.0 13.0,-12.75 12.75,-13.0 -12.75,-13.0 -13.0,-12.75 -13.0,-1.0 -2.75,-1.0 -2.75,-4.75 -2.5,-5.0 -0.75,-5.0 -0.75,0" /></g></svg>