<?xml version="1.0" encoding="utf-8" ?>
<svg baseProfile="full" height="42.0728534806" version="1.1" width="42.0728534806" xmlns="http://www.w3.org/2000/svg" xmlns:ev="http://www.w3.org/2001/xml-events" xmlns:xlink="http://www.w3.org/1999/xlink"><defs /><g id="Layer" transform="translate(21.0364267403,21.0364267403)"><polygon fill="#00FF00" fill-opacity="0.5" points="0.0,0.0 -10.6066017178,-10.6066017178 -21.0364267403,-0.176776695297 -21.0364267403,0.176776695297 -0.176776695297,21.0364267403 0.176776695297,21.0364267403 10.6066017178,10.6066017178 0.53033008589,0.53033008589 -3.00520382004,4.06586399182 -1.76776695297,5.3033008589 -1.41421356237,5.3033008589 1.23743686708,2.65165042945 8.48528137424,9.89949493661 0.176776695297,18.2079996156 -0.176776695297,18.2079996156 -18.2079996156,0.176776695297 -18.2079996156,-0.176776695297 -9.89949493661,-8.48528137424 -2.65165042945,-1.23743686708 -5.3033008589,1.41421356237 -5.3033008589,1.76776695297 -4.06586399182,3.00520382004 -0.53033008589,-0.53033008589 -10.6066017178,-10.6066017178 -0.176776695297,-21.0364267403 0.176776695297,-21.0364267403 21.0364267403,-0.176776695297 21.0364267403,0.176776695297 10.6066017178,10.6066017178 0.53033008589,0.53033008589 4.06586399182,-3.00520382004 5.3033008589,-1.76776695297 5.3033008589,-1.41421356237 2.65165042945,1.23743686708 9.89949493661,8.48528137424 18.2079996156,0.176776695297 18.2079996156,-0.176776695297 0.176776695297,-18.2079996156 -0.176776695297,-18.2079996156 -8.48528137424,-9.89949493661 -1.23743686708,-2.65165042945 1.41421356237,-5.3033008589 1.76776695297,-5.3033008589 3.00520382004,-4.06586399182 -0.53033008589,-0.53033008589" /></g></svg>