<?xml version="1.0" encoding="utf-8" ?>
<svg baseProfile="full" height="35.0" version="1.1" width="35.0" xmlns="http://www.w3.org/2000/svg" xmlns:ev="http://www.w3.org/2001/xml-events" xmlns:xlink="http://www.w3.org/1999/xlink"><defs /><g id="four_crosses" transform="translate(5.0,5.0)"><polygon fill="#00FF00" fill-opacity="0.5" points="-1.0,5.0 1.0,5.0 0,0 5.0,1.0 5.0,-1.0 0,0 1.0,-5.0 -1.0,-5.0 0,0 -5.0,-1.0 -5.0,1.0 0,0" /><polygon fill="#00FF00" fill-opacity="0.5" points="24.0,5.0 26.0,5.0 25,0 30.0,1.0 30.0,-1.0 25,0 26.0,-5.0 24.0,-5.0 25,0 20.0,-1.0 20.0,1.0 25,0" /><polygon fill="#00FF00" fill-opacity="0.5" points="-1.0,30.0 1.0,30.0 0,25 5.0,26.0 5.0,24.0 0,25 1.0,20.0 -1.0,20.0 0,25 -5.0,24.0 -5.0,26.0 0,25" /><polygon fill="#00FF00" fill-opacity="0.5" points="24.0,30.0 26.0,30.0 25,25 30.0,26.0 30.0,24.0 25,25 26.0,20.0 24.0,20.0 25,25 20.0,24.0 20.0,26.0 25,25" /></g></svg>