<?xml version="1.0" encoding="utf-8" ?>
<svg baseProfile="full" height="110.0" version="1.1" width="110.0" xmlns="http://www.w3.org/2000/svg" xmlns:ev="http://www.w3.org/2001/xml-events" xmlns:xlink="http://www.w3.org/1999/xlink"><defs /><g id="four_crosses" transform="translate(5.0,5.0)"><polygon fill="#00FF00" fill-opacity="0.5" points="-1.0,5.0 1.0,5.0 0,0 5.0,1.0 5.0,-1.0 0,0 1.0,-5.0 -1.0,-5.0 0,0 -5.0,-1.0 -5.0,1.0 0,0" /><polygon fill="#00FF00" fill-opacity="0.5" points="99.0,5.0 101.0,5.0 100,0 105.0,1.0 105.0,-1.0 100,0 101.0,-5.0 99.0,-5.0 100,0 95.0,-1.0 95.0,1.0 100,0" /><polygon fill="#00FF00" fill-opacity="0.5" points="-1.0,105.0 1.0,105.0 0,100 5.0,101.0 5.0,99.0 0,100 1.0,95.0 -1.0,95.0 0,100 -5.0,99.0 -5.0,101.0 0,100" /><polygon fill="#00FF00" fill-opacity="0.5" points="99.0,105.0 101.0,105.0 100,100 105.0,101.0 105.0,99.0 100,100 101.0,95.0 99.0,95.0 100,100 95.0,99.0 95.0,101.0 100,100" /></g><g id="square" transform="translate(5.0,5.0)"><rect fill="#FF0000" fill-opacity="0.5" height="20" width="10" x="50" y="50" /></g></svg>